<svg xmlns="http://www.w3.org/2000/svg" xmlns:p="http://www.evolus.vn/Namespace/Pencil" xmlns:pencil="http://www.evolus.vn/Namespace/Pencil" xmlns:html="http://www.w3.org/1999/xhtml" xmlns:xhtml="http://www.w3.org/1999/xhtml" xmlns:office="urn:oasis:names:tc:opendocument:xmlns:office:1.0" xmlns:style="urn:oasis:names:tc:opendocument:xmlns:style:1.0" xmlns:text="urn:oasis:names:tc:opendocument:xmlns:text:1.0" xmlns:table="urn:oasis:names:tc:opendocument:xmlns:table:1.0" xmlns:draw="urn:oasis:names:tc:opendocument:xmlns:drawing:1.0" xmlns:fo="urn:oasis:names:tc:opendocument:xmlns:xsl-fo-compatible:1.0" xmlns:xlink="http://www.w3.org/1999/xlink" xmlns:dc="http://purl.org/dc/elements/1.1/" xmlns:meta="urn:oasis:names:tc:opendocument:xmlns:meta:1.0" xmlns:number="urn:oasis:names:tc:opendocument:xmlns:datastyle:1.0" xmlns:svg="urn:oasis:names:tc:opendocument:xmlns:svg-compatible:1.0" xmlns:chart="urn:oasis:names:tc:opendocument:xmlns:chart:1.0" xmlns:dr3d="urn:oasis:names:tc:opendocument:xmlns:dr3d:1.0" xmlns:math="http://www.w3.org/1998/Math/MathML" xmlns:form="urn:oasis:names:tc:opendocument:xmlns:form:1.0" xmlns:script="urn:oasis:names:tc:opendocument:xmlns:script:1.0" xmlns:ooo="http://openoffice.org/2004/office" xmlns:ooow="http://openoffice.org/2004/writer" xmlns:oooc="http://openoffice.org/2004/calc" xmlns:dom="http://www.w3.org/2001/xml-events" xmlns:xforms="http://www.w3.org/2002/xforms" xmlns:xsd="http://www.w3.org/2001/XMLSchema" xmlns:xsi="http://www.w3.org/2001/XMLSchema-instance" xmlns:rpt="http://openoffice.org/2005/report" xmlns:of="urn:oasis:names:tc:opendocument:xmlns:of:1.2" xmlns:rdfa="http://docs.oasis-open.org/opendocument/meta/rdfa#" xmlns:field="urn:openoffice:names:experimental:ooo-ms-interop:xmlns:field:1.0" xmlns:regexp="http://exslt.org/regular-expressions" xmlns:em="http://exslt.org/math" xmlns:sodipodi="http://sodipodi.sourceforge.net/DTD/sodipodi-0.dtd" xmlns:inkscape="http://www.inkscape.org/namespaces/inkscape" width="416" height="588" id="exportedSVG" version="1.1" pencil:version="1.2.2" sodipodi:docname="buchungen"><g inkscape:label="Untitled Page" inkscape:groupmode="layer" id="layer_untitled_page"><g><rect x="0" y="0" width="416" height="588" fill="none"/><g p:type="Shape" p:def="Evolus.Sketchy.GUI:box" id="25af2d176a314b29871dd96d885b7c91" transform="matrix(1,0,0,1,5,5)"><p:metadata><p:property name="box">405,577</p:property><p:property name="textPadding">20.25,38.46666666666667</p:property><p:property name="fillColor">#FFFFFFFF</p:property><p:property name="strokeColor">#000000FF</p:property><p:property name="strokeStyle">1|</p:property><p:property name="textContent"/><p:property name="textFont">'Comic Sans MS'|normal|normal|12px|none</p:property><p:property name="textColor">#000000FF</p:property><p:property name="textAlign">1,1</p:property></p:metadata>
            <path style="stroke-linejoin: round; fill: rgb(255, 255, 255); fill-opacity: 1; stroke: rgb(0, 0, 0); stroke-opacity: 1; stroke-width: 1;" p:name="line1" id="22bf4c8166cd4fd584a18675578a197e" transform="translate(0.5,0.5)" d="M 0 0 C 135 0 270 0 405 0 C 403 192 403 385 405 577 C 270 577 135 577 0 577 C -1 385 -1 192 0 0 z"/>
            <text p:name="text" id="c5f9e270d1f74beeb2436cd4e2bda5fc" transform="translate(203,289)" style="font-family: &quot;Comic Sans MS&quot;; font-size: 12px; font-weight: normal; font-style: normal; text-decoration: none; fill: rgb(0, 0, 0); fill-opacity: 1;"/>
        </g><g p:type="Shape" p:def="Evolus.Prototype.GUI:scrollBarHorizontal" id="69ce5014c11f4a83a49251553cd59723" transform="matrix(1,0,0,1,6,563)"><p:metadata><p:property name="box">404.6528,20</p:property><p:property name="thumbBegin">14.181757009345796,10</p:property><p:property name="thumbEnd">94.54504672897197,10</p:property><p:property name="fillColor">#F5F5F5FF</p:property><p:property name="scrollColor">#000000FF</p:property><p:property name="strokeColor">#666666FF</p:property><p:property name="strokeStyle">2|</p:property></p:metadata>
            <path p:name="scrollBox" id="ce7c8d31e0fc45be821ad17219e884c9" d="M 0 0 L 404.6528 0 L 404.6528 20 L 0 20 z" style="stroke: rgb(102, 102, 102); stroke-opacity: 1; stroke-width: 2; fill: rgb(245, 245, 245); fill-opacity: 1;"/>
            <path style="fill: #C0C0C0" p:name="scrollPoint" id="91b9e8ce03e64ecd8a152999584365a2" d="M 14.181757009345796 1 L 94.54504672897197 1 L 94.54504672897197 19 L 14.181757009345796 19 z"/>
            <path style="fill: #C0C0C0; stroke:#C0C0C0; stroke-linejoin: round;" p:name="arrowLeft" id="9d8ca534ee8541fe87aa32e625f2ccf6" d="M 5 10 L 10 5 L 10 15 z"/>
            <path style="fill: #C0C0C0; stroke:#C0C0C0; stroke-linejoin: round;" p:name="arrowRight" id="f565d93be4234f92a259b09cd9980c7c" d="M 399.6528 10 L 394.6528 5 L 394.6528 15 z"/>
        </g><g p:type="Shape" p:def="Evolus.Sketchy.GUI:box" id="8d6b413d3c3f457db499d7042245ea34" transform="matrix(1,0,0,1,57,49)"><p:metadata><p:property name="box">100,100</p:property><p:property name="textPadding">5,6.666666666666666</p:property><p:property name="fillColor">#FFFF99FF</p:property><p:property name="strokeColor">#000000FF</p:property><p:property name="strokeStyle">1|</p:property><p:property name="textContent"/><p:property name="textFont">'Comic Sans MS'|normal|normal|12px|none</p:property><p:property name="textColor">#000000FF</p:property><p:property name="textAlign">1,1</p:property></p:metadata>
            <path style="stroke-linejoin: round; fill: rgb(255, 255, 153); fill-opacity: 1; stroke: rgb(0, 0, 0); stroke-opacity: 1; stroke-width: 1;" p:name="line1" id="0d1dfa5a8d1e4ec4b161fa131695c2b3" transform="translate(0.5,0.5)" d="M 0 0 C 33 0 67 0 100 0 C 99 33 99 67 100 100 C 67 100 33 100 0 100 C -1 67 -1 33 0 0 z"/>
            <text p:name="text" id="0903a08a983a40a89bae023ef20c1d91" transform="translate(50,50)" style="font-family: &quot;Comic Sans MS&quot;; font-size: 12px; font-weight: normal; font-style: normal; text-decoration: none; fill: rgb(0, 0, 0); fill-opacity: 1;"/>
        </g><g p:type="Shape" p:def="Evolus.Sketchy.GUI:box" id="b7c0944ee6e24dcfb61a93dd283857cb" transform="matrix(1,0,0,1,158,49)"><p:metadata><p:property name="box">100,100</p:property><p:property name="textPadding">5,6.666666666666666</p:property><p:property name="fillColor">#FFFF99FF</p:property><p:property name="strokeColor">#000000FF</p:property><p:property name="strokeStyle">1|</p:property><p:property name="textContent"/><p:property name="textFont">'Comic Sans MS'|normal|normal|12px|none</p:property><p:property name="textColor">#000000FF</p:property><p:property name="textAlign">1,1</p:property></p:metadata>
            <path style="stroke-linejoin: round; fill: rgb(255, 255, 153); fill-opacity: 1; stroke: rgb(0, 0, 0); stroke-opacity: 1; stroke-width: 1;" p:name="line1" id="f6add94de3c14edf858a99c873b99bcf" transform="translate(0.5,0.5)" d="M 0 0 C 33 1 67 1 100 0 C 100 33 100 67 100 100 C 67 99 33 99 0 100 C 0 67 0 33 0 0 z"/>
            <text p:name="text" id="77d47152b9264acaae3221689ab2d875" transform="translate(50,50)" style="font-family: &quot;Comic Sans MS&quot;; font-size: 12px; font-weight: normal; font-style: normal; text-decoration: none; fill: rgb(0, 0, 0); fill-opacity: 1;"/>
        </g><g p:type="Shape" p:def="Evolus.Sketchy.GUI:box" id="e96f63f888af4b24a71a011a0d09e949" transform="matrix(1,0,0,1,259,49)"><p:metadata><p:property name="box">100,100</p:property><p:property name="textPadding">5,6.666666666666666</p:property><p:property name="fillColor">#FFFFFFFF</p:property><p:property name="strokeColor">#000000FF</p:property><p:property name="strokeStyle">1|</p:property><p:property name="textContent"/><p:property name="textFont">'Comic Sans MS'|normal|normal|12px|none</p:property><p:property name="textColor">#000000FF</p:property><p:property name="textAlign">1,1</p:property></p:metadata>
            <path style="stroke-linejoin: round; fill: rgb(255, 255, 255); fill-opacity: 1; stroke: rgb(0, 0, 0); stroke-opacity: 1; stroke-width: 1;" p:name="line1" id="d7d02d3029c749f3ab10802437de42d9" transform="translate(0.5,0.5)" d="M 0 0 C 33 0 67 0 100 0 C 100 33 100 67 100 100 C 67 100 33 100 0 100 C 0 67 0 33 0 0 z"/>
            <text p:name="text" id="6be473e1539f4d0491dacbbb6b60464d" transform="translate(50,50)" style="font-family: &quot;Comic Sans MS&quot;; font-size: 12px; font-weight: normal; font-style: normal; text-decoration: none; fill: rgb(0, 0, 0); fill-opacity: 1;"/>
        </g><g p:type="Shape" p:def="Evolus.Sketchy.GUI:lineV2" id="ae05056c2c234f64ba5359da052fb64c" transform="matrix(1,0,0,1,358,148)"><p:metadata><p:property name="startLine">0,0</p:property><p:property name="endLine">51,0</p:property><p:property name="mode">free</p:property><p:property name="strokeColor">#000000FF</p:property><p:property name="strokeStyle">1|</p:property></p:metadata>
            <g p:name="rect" id="f4d21f08a47041dd9d3a20cc577f3da4" transform="translate(0.5,0.5)" style="stroke: rgb(0, 0, 0); stroke-opacity: 1; stroke-width: 1;">
    			<path style="stroke: #FFFFFF; stroke-opacity: 0; stroke-width: 8px; fill: none;" p:name="bg" id="1be2f33ccd7444c8beb99b475a66155c" transform="translate(0.5,0.5)" d="M 0 0 C 17 0 34 0 51 0"/>
    			<path style="stroke-linejoin: round; fill: none;" p:name="line1" id="17bbd1fe555943d1a4fcb2d1a9d5082e" transform="translate(0.5,0.5)" d="M 0 0 C 17 -1 34 -1 51 0"/>
    		</g>
        </g><g p:type="Shape" p:def="Evolus.Sketchy.GUI:lineV2" id="5aa49353a72341fe99846c94cc4537de" transform="matrix(1,0,0,1,358,49)"><p:metadata><p:property name="startLine">0,0</p:property><p:property name="endLine">51,0</p:property><p:property name="mode">free</p:property><p:property name="strokeColor">#000000FF</p:property><p:property name="strokeStyle">1|</p:property></p:metadata>
            <g p:name="rect" id="dc7f2bd2b736420ca58a4f5a502c3189" transform="translate(0.5,0.5)" style="stroke: rgb(0, 0, 0); stroke-opacity: 1; stroke-width: 1;">
    			<path style="stroke: #FFFFFF; stroke-opacity: 0; stroke-width: 8px; fill: none;" p:name="bg" id="8c984d3aa43a46248c3d16e3d451e844" transform="translate(0.5,0.5)" d="M 0 0 C 17 0 34 0 51 0"/>
    			<path style="stroke-linejoin: round; fill: none;" p:name="line1" id="e718b50caa744c2990b2d78d02b86e0f" transform="translate(0.5,0.5)" d="M 0 0 C 17 -1 34 -1 51 0"/>
    		</g>
        </g><g p:type="Shape" p:def="Evolus.Sketchy.GUI:lineV2" id="2332bdfc7f2446f3bb71d8a9abb9e40b" transform="matrix(1,0,0,1,358,248)"><p:metadata><p:property name="startLine">0,0</p:property><p:property name="endLine">51,0</p:property><p:property name="mode">free</p:property><p:property name="strokeColor">#000000FF</p:property><p:property name="strokeStyle">1|</p:property></p:metadata>
            <g p:name="rect" id="1f5c4240334641448397e6b73204a80b" transform="translate(0.5,0.5)" style="stroke: rgb(0, 0, 0); stroke-opacity: 1; stroke-width: 1;">
    			<path style="stroke: #FFFFFF; stroke-opacity: 0; stroke-width: 8px; fill: none;" p:name="bg" id="b102abb4c8d0433697e78565fd30d14e" transform="translate(0.5,0.5)" d="M 0 0 C 17 0 34 0 51 0"/>
    			<path style="stroke-linejoin: round; fill: none;" p:name="line1" id="a6e2296ad1aa4a109b3e21fdcfe4d5c2" transform="translate(0.5,0.5)" d="M 0 0 C 17 -1 34 -1 51 0"/>
    		</g>
        </g><g p:type="Shape" p:def="Evolus.Sketchy.GUI:lineV2" id="95968d6d88f641b98e2ad6bc17c2fb37" transform="matrix(1,0,0,1,358,149)"><p:metadata><p:property name="startLine">0,0</p:property><p:property name="endLine">51,0</p:property><p:property name="mode">free</p:property><p:property name="strokeColor">#000000FF</p:property><p:property name="strokeStyle">1|</p:property></p:metadata>
            <g p:name="rect" id="5534c253d1714619bcb2b624b5d7a1c8" transform="translate(0.5,0.5)" style="stroke: rgb(0, 0, 0); stroke-opacity: 1; stroke-width: 1;">
    			<path style="stroke: #FFFFFF; stroke-opacity: 0; stroke-width: 8px; fill: none;" p:name="bg" id="2a86a52c18a24424a791a9e8593eef51" transform="translate(0.5,0.5)" d="M 0 0 C 17 0 34 0 51 0"/>
    			<path style="stroke-linejoin: round; fill: none;" p:name="line1" id="2f474d18646f4a13bf6c0981451c7fb6" transform="translate(0.5,0.5)" d="M 0 0 C 17 -1 34 -1 51 0"/>
    		</g>
        </g><g p:type="Shape" p:def="Evolus.Sketchy.GUI:box" id="6749e5530fa54a89ad3b7a10cacaa4c3" transform="matrix(1,0,0,1,259,149)"><p:metadata><p:property name="box">100,100</p:property><p:property name="textPadding">5,6.666666666666666</p:property><p:property name="fillColor">#FFFFFFFF</p:property><p:property name="strokeColor">#000000FF</p:property><p:property name="strokeStyle">1|</p:property><p:property name="textContent"/><p:property name="textFont">'Comic Sans MS'|normal|normal|12px|none</p:property><p:property name="textColor">#000000FF</p:property><p:property name="textAlign">1,1</p:property></p:metadata>
            <path style="stroke-linejoin: round; fill: rgb(255, 255, 255); fill-opacity: 1; stroke: rgb(0, 0, 0); stroke-opacity: 1; stroke-width: 1;" p:name="line1" id="2c344105025c4e35874083ce7239ad80" transform="translate(0.5,0.5)" d="M 0 0 C 33 0 67 0 100 0 C 100 33 100 67 100 100 C 67 100 33 100 0 100 C 0 67 0 33 0 0 z"/>
            <text p:name="text" id="a5063da740b64bd7a2922a7f3413c1b1" transform="translate(50,50)" style="font-family: &quot;Comic Sans MS&quot;; font-size: 12px; font-weight: normal; font-style: normal; text-decoration: none; fill: rgb(0, 0, 0); fill-opacity: 1;"/>
        </g><g p:type="Shape" p:def="Evolus.Sketchy.GUI:box" id="b1e8990c7d4d49bd86c8abcd6b9d5fd5" transform="matrix(1,0,0,1,158,149)"><p:metadata><p:property name="box">100,100</p:property><p:property name="textPadding">5,6.666666666666666</p:property><p:property name="fillColor">#FFFF99FF</p:property><p:property name="strokeColor">#000000FF</p:property><p:property name="strokeStyle">1|</p:property><p:property name="textContent"/><p:property name="textFont">'Comic Sans MS'|normal|normal|12px|none</p:property><p:property name="textColor">#000000FF</p:property><p:property name="textAlign">1,1</p:property></p:metadata>
            <path style="stroke-linejoin: round; fill: rgb(255, 255, 153); fill-opacity: 1; stroke: rgb(0, 0, 0); stroke-opacity: 1; stroke-width: 1;" p:name="line1" id="1e2184b5aa1e4bcdaa8b0610a9b16b03" transform="translate(0.5,0.5)" d="M 0 0 C 33 1 67 1 100 0 C 99 33 99 67 100 100 C 67 100 33 100 0 100 C 0 67 0 33 0 0 z"/>
            <text p:name="text" id="89713a2933cd4f77a7a9b2412f56a07f" transform="translate(50,50)" style="font-family: &quot;Comic Sans MS&quot;; font-size: 12px; font-weight: normal; font-style: normal; text-decoration: none; fill: rgb(0, 0, 0); fill-opacity: 1;"/>
        </g><g p:type="Shape" p:def="Evolus.Sketchy.GUI:box" id="01056c5b56e54ffeb35b264730484385" transform="matrix(1,0,0,1,57,149)"><p:metadata><p:property name="box">100,100</p:property><p:property name="textPadding">5,6.666666666666666</p:property><p:property name="fillColor">#FFFF99FF</p:property><p:property name="strokeColor">#000000FF</p:property><p:property name="strokeStyle">1|</p:property><p:property name="textContent"/><p:property name="textFont">'Comic Sans MS'|normal|normal|12px|none</p:property><p:property name="textColor">#000000FF</p:property><p:property name="textAlign">1,1</p:property></p:metadata>
            <path style="stroke-linejoin: round; fill: rgb(255, 255, 153); fill-opacity: 1; stroke: rgb(0, 0, 0); stroke-opacity: 1; stroke-width: 1;" p:name="line1" id="3db971f34b04451e9d03bc9bf0a180e3" transform="translate(0.5,0.5)" d="M 0 0 C 33 0 67 0 100 0 C 99 33 99 67 100 100 C 67 100 33 100 0 100 C 0 67 0 33 0 0 z"/>
            <text p:name="text" id="2ea3d27dd6e040b3a3c2dd9f47750560" transform="translate(50,50)" style="font-family: &quot;Comic Sans MS&quot;; font-size: 12px; font-weight: normal; font-style: normal; text-decoration: none; fill: rgb(0, 0, 0); fill-opacity: 1;"/>
        </g><g p:type="Shape" p:def="Evolus.Sketchy.GUI:lineV2" id="4da1a8a7ea20480ea595a3459cbcbb80" transform="matrix(1,0,0,1,358,348)"><p:metadata><p:property name="startLine">0,0</p:property><p:property name="endLine">51,0</p:property><p:property name="mode">free</p:property><p:property name="strokeColor">#000000FF</p:property><p:property name="strokeStyle">1|</p:property></p:metadata>
            <g p:name="rect" id="8e21ab90bfe84083958bc199ea96291f" transform="translate(0.5,0.5)" style="stroke: rgb(0, 0, 0); stroke-opacity: 1; stroke-width: 1;">
    			<path style="stroke: #FFFFFF; stroke-opacity: 0; stroke-width: 8px; fill: none;" p:name="bg" id="699c6d326cd943499e7edc12a8744e30" transform="translate(0.5,0.5)" d="M 0 0 C 17 0 34 0 51 0"/>
    			<path style="stroke-linejoin: round; fill: none;" p:name="line1" id="1874b5c99d054962af8908b5f2e25f37" transform="translate(0.5,0.5)" d="M 0 0 C 17 -1 34 -1 51 0"/>
    		</g>
        </g><g p:type="Shape" p:def="Evolus.Sketchy.GUI:lineV2" id="4136b34df9534fdca70d7289bb0de912" transform="matrix(1,0,0,1,358,249)"><p:metadata><p:property name="startLine">0,0</p:property><p:property name="endLine">51,0</p:property><p:property name="mode">free</p:property><p:property name="strokeColor">#000000FF</p:property><p:property name="strokeStyle">1|</p:property></p:metadata>
            <g p:name="rect" id="09186a5b2d0c45f5bb7ecdef74379784" transform="translate(0.5,0.5)" style="stroke: rgb(0, 0, 0); stroke-opacity: 1; stroke-width: 1;">
    			<path style="stroke: #FFFFFF; stroke-opacity: 0; stroke-width: 8px; fill: none;" p:name="bg" id="093d4490f7cb43208b3735e499d0a533" transform="translate(0.5,0.5)" d="M 0 0 C 17 0 34 0 51 0"/>
    			<path style="stroke-linejoin: round; fill: none;" p:name="line1" id="fa6d387df4c347089718a95110f2f7a5" transform="translate(0.5,0.5)" d="M 0 0 C 17 -1 34 -1 51 0"/>
    		</g>
        </g><g p:type="Shape" p:def="Evolus.Sketchy.GUI:box" id="7dfb74a7f7f846c1a77daad0b84af082" transform="matrix(1,0,0,1,259,249)"><p:metadata><p:property name="box">100,100</p:property><p:property name="textPadding">5,6.666666666666666</p:property><p:property name="fillColor">#000000FF</p:property><p:property name="strokeColor">#000000FF</p:property><p:property name="strokeStyle">1|</p:property><p:property name="textContent"/><p:property name="textFont">'Comic Sans MS'|normal|normal|12px|none</p:property><p:property name="textColor">#000000FF</p:property><p:property name="textAlign">1,1</p:property></p:metadata>
            <path style="stroke-linejoin: round; fill: rgb(0, 0, 0); fill-opacity: 1; stroke: rgb(0, 0, 0); stroke-opacity: 1; stroke-width: 1;" p:name="line1" id="cb12763876e54f5db494787cd72516ad" transform="translate(0.5,0.5)" d="M 0 0 C 33 1 67 1 100 0 C 100 33 100 67 100 100 C 67 100 33 100 0 100 C -1 67 -1 33 0 0 z"/>
            <text p:name="text" id="68fa859a57ec4c6cb065997c7a95f2ab" transform="translate(50,50)" style="font-family: &quot;Comic Sans MS&quot;; font-size: 12px; font-weight: normal; font-style: normal; text-decoration: none; fill: rgb(0, 0, 0); fill-opacity: 1;"/>
        </g><g p:type="Shape" p:def="Evolus.Sketchy.GUI:box" id="05d030599e054b5db6ca223428a9de29" transform="matrix(1,0,0,1,158,249)"><p:metadata><p:property name="box">100,100</p:property><p:property name="textPadding">5,6.666666666666666</p:property><p:property name="fillColor">#000000FF</p:property><p:property name="strokeColor">#000000FF</p:property><p:property name="strokeStyle">1|</p:property><p:property name="textContent"/><p:property name="textFont">'Comic Sans MS'|normal|normal|12px|none</p:property><p:property name="textColor">#000000FF</p:property><p:property name="textAlign">1,1</p:property></p:metadata>
            <path style="stroke-linejoin: round; fill: rgb(0, 0, 0); fill-opacity: 1; stroke: rgb(0, 0, 0); stroke-opacity: 1; stroke-width: 1;" p:name="line1" id="69b5e127b16742a1baaf3a17b81de661" transform="translate(0.5,0.5)" d="M 0 0 C 33 -1 67 -1 100 0 C 100 33 100 67 100 100 C 67 99 33 99 0 100 C -1 67 -1 33 0 0 z"/>
            <text p:name="text" id="706e063a6cce4dec9bced972e9c91d0e" transform="translate(50,50)" style="font-family: &quot;Comic Sans MS&quot;; font-size: 12px; font-weight: normal; font-style: normal; text-decoration: none; fill: rgb(0, 0, 0); fill-opacity: 1;"/>
        </g><g p:type="Shape" p:def="Evolus.Sketchy.GUI:box" id="2307ab14d2a847f0abb7c1d42c035c16" transform="matrix(1,0,0,1,57,249)"><p:metadata><p:property name="box">100,100</p:property><p:property name="textPadding">5,6.666666666666666</p:property><p:property name="fillColor">#000000FF</p:property><p:property name="strokeColor">#000000FF</p:property><p:property name="strokeStyle">1|</p:property><p:property name="textContent"/><p:property name="textFont">'Comic Sans MS'|normal|normal|12px|none</p:property><p:property name="textColor">#000000FF</p:property><p:property name="textAlign">1,1</p:property></p:metadata>
            <path style="stroke-linejoin: round; fill: rgb(0, 0, 0); fill-opacity: 1; stroke: rgb(0, 0, 0); stroke-opacity: 1; stroke-width: 1;" p:name="line1" id="c4e9bae598074d29acb2fa36c8c8a389" transform="translate(0.5,0.5)" d="M 0 0 C 33 1 67 1 100 0 C 100 33 100 67 100 100 C 67 100 33 100 0 100 C -1 67 -1 33 0 0 z"/>
            <text p:name="text" id="874d37da070542b7863af8b320c83343" transform="translate(50,50)" style="font-family: &quot;Comic Sans MS&quot;; font-size: 12px; font-weight: normal; font-style: normal; text-decoration: none; fill: rgb(0, 0, 0); fill-opacity: 1;"/>
        </g><g p:type="Shape" p:def="Evolus.Sketchy.GUI:lineV2" id="c94ec1dbdfb6485ab828d8b4d224dd99" transform="matrix(1,0,0,1,358,448)"><p:metadata><p:property name="startLine">0,0</p:property><p:property name="endLine">51,0</p:property><p:property name="mode">free</p:property><p:property name="strokeColor">#000000FF</p:property><p:property name="strokeStyle">1|</p:property></p:metadata>
            <g p:name="rect" id="f31d69b6c07642c2939d694de5a53238" transform="translate(0.5,0.5)" style="stroke: rgb(0, 0, 0); stroke-opacity: 1; stroke-width: 1;">
    			<path style="stroke: #FFFFFF; stroke-opacity: 0; stroke-width: 8px; fill: none;" p:name="bg" id="ee6734b2c6a34b579686ccd350e03062" transform="translate(0.5,0.5)" d="M 0 0 C 17 0 34 0 51 0"/>
    			<path style="stroke-linejoin: round; fill: none;" p:name="line1" id="5b755b69944141f5a67f9743cc46c3fa" transform="translate(0.5,0.5)" d="M 0 0 C 17 -1 34 -1 51 0"/>
    		</g>
        </g><g p:type="Shape" p:def="Evolus.Sketchy.GUI:lineV2" id="7e0e94e0e87441d7ac17a12b8438a6e1" transform="matrix(1,0,0,1,358,349)"><p:metadata><p:property name="startLine">0,0</p:property><p:property name="endLine">51,0</p:property><p:property name="mode">free</p:property><p:property name="strokeColor">#000000FF</p:property><p:property name="strokeStyle">1|</p:property></p:metadata>
            <g p:name="rect" id="cb75429d288c446b9f837999833e8210" transform="translate(0.5,0.5)" style="stroke: rgb(0, 0, 0); stroke-opacity: 1; stroke-width: 1;">
    			<path style="stroke: #FFFFFF; stroke-opacity: 0; stroke-width: 8px; fill: none;" p:name="bg" id="48804b8340fc4fe18679cfe792ff6eb7" transform="translate(0.5,0.5)" d="M 0 0 C 17 0 34 0 51 0"/>
    			<path style="stroke-linejoin: round; fill: none;" p:name="line1" id="a390be756cd3405e8dad1f4e0c8fe7cb" transform="translate(0.5,0.5)" d="M 0 0 C 17 -1 34 -1 51 0"/>
    		</g>
        </g><g p:type="Shape" p:def="Evolus.Sketchy.GUI:box" id="6e983a28f3b3485c84c9c9469b178a73" transform="matrix(1,0,0,1,259,349)"><p:metadata><p:property name="box">100,100</p:property><p:property name="textPadding">5,6.666666666666666</p:property><p:property name="fillColor">#FFFFFFFF</p:property><p:property name="strokeColor">#000000FF</p:property><p:property name="strokeStyle">1|</p:property><p:property name="textContent"/><p:property name="textFont">'Comic Sans MS'|normal|normal|12px|none</p:property><p:property name="textColor">#000000FF</p:property><p:property name="textAlign">1,1</p:property></p:metadata>
            <path style="stroke-linejoin: round; fill: rgb(255, 255, 255); fill-opacity: 1; stroke: rgb(0, 0, 0); stroke-opacity: 1; stroke-width: 1;" p:name="line1" id="16f18e9a02d7474bb448643bc180a061" transform="translate(0.5,0.5)" d="M 0 0 C 33 0 67 0 100 0 C 100 33 100 67 100 100 C 67 100 33 100 0 100 C 0 67 0 33 0 0 z"/>
            <text p:name="text" id="6fe430e0260b405a88855d0742e19028" transform="translate(50,50)" style="font-family: &quot;Comic Sans MS&quot;; font-size: 12px; font-weight: normal; font-style: normal; text-decoration: none; fill: rgb(0, 0, 0); fill-opacity: 1;"/>
        </g><g p:type="Shape" p:def="Evolus.Sketchy.GUI:box" id="125d7f98a9b84b8f95068a78ba748d22" transform="matrix(1,0,0,1,158,349)"><p:metadata><p:property name="box">100,100</p:property><p:property name="textPadding">5,6.666666666666666</p:property><p:property name="fillColor">#FFFFFFFF</p:property><p:property name="strokeColor">#000000FF</p:property><p:property name="strokeStyle">1|</p:property><p:property name="textContent"/><p:property name="textFont">'Comic Sans MS'|normal|normal|12px|none</p:property><p:property name="textColor">#000000FF</p:property><p:property name="textAlign">1,1</p:property></p:metadata>
            <path style="stroke-linejoin: round; fill: rgb(255, 255, 255); fill-opacity: 1; stroke: rgb(0, 0, 0); stroke-opacity: 1; stroke-width: 1;" p:name="line1" id="251cbfa6bae5400faacbeb4cd409131b" transform="translate(0.5,0.5)" d="M 0 0 C 33 0 67 0 100 0 C 100 33 100 67 100 100 C 67 100 33 100 0 100 C 0 67 0 33 0 0 z"/>
            <text p:name="text" id="24a219e5213142ae848259833a4fbe41" transform="translate(50,50)" style="font-family: &quot;Comic Sans MS&quot;; font-size: 12px; font-weight: normal; font-style: normal; text-decoration: none; fill: rgb(0, 0, 0); fill-opacity: 1;"/>
        </g><g p:type="Shape" p:def="Evolus.Sketchy.GUI:box" id="b186e642f48e4f4cbc28b0283c833dfc" transform="matrix(1,0,0,1,57,349)"><p:metadata><p:property name="box">100,100</p:property><p:property name="textPadding">5,6.666666666666666</p:property><p:property name="fillColor">#FFFFFFFF</p:property><p:property name="strokeColor">#000000FF</p:property><p:property name="strokeStyle">1|</p:property><p:property name="textContent"/><p:property name="textFont">'Comic Sans MS'|normal|normal|12px|none</p:property><p:property name="textColor">#000000FF</p:property><p:property name="textAlign">1,1</p:property></p:metadata>
            <path style="stroke-linejoin: round; fill: rgb(255, 255, 255); fill-opacity: 1; stroke: rgb(0, 0, 0); stroke-opacity: 1; stroke-width: 1;" p:name="line1" id="120ac21128b54f6aa309530b80450c6f" transform="translate(0.5,0.5)" d="M 0 0 C 33 0 67 0 100 0 C 100 33 100 67 100 100 C 67 100 33 100 0 100 C 0 67 0 33 0 0 z"/>
            <text p:name="text" id="a2e985fdc91a474e9f11a3a63ce79900" transform="translate(50,50)" style="font-family: &quot;Comic Sans MS&quot;; font-size: 12px; font-weight: normal; font-style: normal; text-decoration: none; fill: rgb(0, 0, 0); fill-opacity: 1;"/>
        </g><g p:type="Shape" p:def="Evolus.Sketchy.GUI:lineV2" id="a99c29d9788e4a279240bb7664a25b46" transform="matrix(1,0,0,1,358,548)"><p:metadata><p:property name="startLine">0,0</p:property><p:property name="endLine">51,0</p:property><p:property name="mode">free</p:property><p:property name="strokeColor">#000000FF</p:property><p:property name="strokeStyle">1|</p:property></p:metadata>
            <g p:name="rect" id="2c9177224d514d3fb047d1149b8b752e" transform="translate(0.5,0.5)" style="stroke: rgb(0, 0, 0); stroke-opacity: 1; stroke-width: 1;">
    			<path style="stroke: #FFFFFF; stroke-opacity: 0; stroke-width: 8px; fill: none;" p:name="bg" id="2a494a7301324222b5c16637990b1e7a" transform="translate(0.5,0.5)" d="M 0 0 C 17 0 34 0 51 0"/>
    			<path style="stroke-linejoin: round; fill: none;" p:name="line1" id="90cca17f1ba243c9820ee4c8622d9f1d" transform="translate(0.5,0.5)" d="M 0 0 C 17 -1 34 -1 51 0"/>
    		</g>
        </g><g p:type="Shape" p:def="Evolus.Sketchy.GUI:lineV2" id="c249c1d4f8a3489a89d1e07c5076aaef" transform="matrix(1,0,0,1,358,449)"><p:metadata><p:property name="startLine">0,0</p:property><p:property name="endLine">51,0</p:property><p:property name="mode">free</p:property><p:property name="strokeColor">#000000FF</p:property><p:property name="strokeStyle">1|</p:property></p:metadata>
            <g p:name="rect" id="22dd1adee283405d896f498f12148272" transform="translate(0.5,0.5)" style="stroke: rgb(0, 0, 0); stroke-opacity: 1; stroke-width: 1;">
    			<path style="stroke: #FFFFFF; stroke-opacity: 0; stroke-width: 8px; fill: none;" p:name="bg" id="42e8333b9cdb45d0aa1d5915f284405e" transform="translate(0.5,0.5)" d="M 0 0 C 17 0 34 0 51 0"/>
    			<path style="stroke-linejoin: round; fill: none;" p:name="line1" id="e6b0db8842bb4cc1afcaceb86dcfb0da" transform="translate(0.5,0.5)" d="M 0 0 C 17 -1 34 -1 51 0"/>
    		</g>
        </g><g p:type="Shape" p:def="Evolus.Sketchy.GUI:box" id="4ac802c1132743019b36243dc7beb64a" transform="matrix(1,0,0,1,259,449)"><p:metadata><p:property name="box">100,100</p:property><p:property name="textPadding">5,6.666666666666666</p:property><p:property name="fillColor">#FFFFFFFF</p:property><p:property name="strokeColor">#000000FF</p:property><p:property name="strokeStyle">1|</p:property><p:property name="textContent"/><p:property name="textFont">'Comic Sans MS'|normal|normal|12px|none</p:property><p:property name="textColor">#000000FF</p:property><p:property name="textAlign">1,1</p:property></p:metadata>
            <path style="stroke-linejoin: round; fill: rgb(255, 255, 255); fill-opacity: 1; stroke: rgb(0, 0, 0); stroke-opacity: 1; stroke-width: 1;" p:name="line1" id="0370437503ac4f25923bfacdd509af9d" transform="translate(0.5,0.5)" d="M 0 0 C 33 0 67 0 100 0 C 100 33 100 67 100 100 C 67 100 33 100 0 100 C 0 67 0 33 0 0 z"/>
            <text p:name="text" id="5771624720da4db58270127d21bad020" transform="translate(50,50)" style="font-family: &quot;Comic Sans MS&quot;; font-size: 12px; font-weight: normal; font-style: normal; text-decoration: none; fill: rgb(0, 0, 0); fill-opacity: 1;"/>
        </g><g p:type="Shape" p:def="Evolus.Sketchy.GUI:box" id="d14a379192434006b4e6d01dc06cb0a4" transform="matrix(1,0,0,1,158,449)"><p:metadata><p:property name="box">100,100</p:property><p:property name="textPadding">5,6.666666666666666</p:property><p:property name="fillColor">#FFFFFFFF</p:property><p:property name="strokeColor">#000000FF</p:property><p:property name="strokeStyle">1|</p:property><p:property name="textContent"/><p:property name="textFont">'Comic Sans MS'|normal|normal|12px|none</p:property><p:property name="textColor">#000000FF</p:property><p:property name="textAlign">1,1</p:property></p:metadata>
            <path style="stroke-linejoin: round; fill: rgb(255, 255, 255); fill-opacity: 1; stroke: rgb(0, 0, 0); stroke-opacity: 1; stroke-width: 1;" p:name="line1" id="0bb7203a242d4957abc3c64d605d7d9a" transform="translate(0.5,0.5)" d="M 0 0 C 33 0 67 0 100 0 C 100 33 100 67 100 100 C 67 100 33 100 0 100 C 0 67 0 33 0 0 z"/>
            <text p:name="text" id="f46ae0f096224984ab47bc711858a149" transform="translate(50,50)" style="font-family: &quot;Comic Sans MS&quot;; font-size: 12px; font-weight: normal; font-style: normal; text-decoration: none; fill: rgb(0, 0, 0); fill-opacity: 1;"/>
        </g><g p:type="Shape" p:def="Evolus.Sketchy.GUI:box" id="3cbfde83935b4addaa57bd82d3131825" transform="matrix(1,0,0,1,57,449)"><p:metadata><p:property name="box">100,100</p:property><p:property name="textPadding">5,6.666666666666666</p:property><p:property name="fillColor">#FFFFFFFF</p:property><p:property name="strokeColor">#000000FF</p:property><p:property name="strokeStyle">1|</p:property><p:property name="textContent"/><p:property name="textFont">'Comic Sans MS'|normal|normal|12px|none</p:property><p:property name="textColor">#000000FF</p:property><p:property name="textAlign">1,1</p:property></p:metadata>
            <path style="stroke-linejoin: round; fill: rgb(255, 255, 255); fill-opacity: 1; stroke: rgb(0, 0, 0); stroke-opacity: 1; stroke-width: 1;" p:name="line1" id="8b9dc13371c24336891c313b844c88e1" transform="translate(0.5,0.5)" d="M 0 0 C 33 0 67 0 100 0 C 100 33 100 67 100 100 C 67 100 33 100 0 100 C 0 67 0 33 0 0 z"/>
            <text p:name="text" id="bf213e3891f94adc91e6521a308e24d7" transform="translate(50,50)" style="font-family: &quot;Comic Sans MS&quot;; font-size: 12px; font-weight: normal; font-style: normal; text-decoration: none; fill: rgb(0, 0, 0); fill-opacity: 1;"/>
        </g><g p:type="Shape" p:def="Evolus.Prototype.GUI:scrollBarVertical" id="acfac1e50fe5432697ea13d22efc3a24" transform="matrix(1,0,0,1,390,7)"><p:metadata><p:property name="box">20,556.52</p:property><p:property name="thumbBegin">10,26.005607476635515</p:property><p:property name="thumbEnd">10,130.02803738317758</p:property><p:property name="fillColor">#F5F5F5FF</p:property><p:property name="scrollColor">#000000FF</p:property><p:property name="strokeColor">#666666FF</p:property><p:property name="strokeStyle">2|</p:property></p:metadata>
            <path p:name="scrollBox" id="d37e297f33474510b5d1a70ab0baf112" d="M 0 0 L 20 0 L 20 556.52 L 0 556.52 z" style="stroke: rgb(102, 102, 102); stroke-opacity: 1; stroke-width: 2; fill: rgb(245, 245, 245); fill-opacity: 1;"/>
            <path style="fill: #C0C0C0" p:name="scrollPoint" id="f14fb060bb1647f6a0f37ce01cead4bf" d="M 1 26.005607476635515 L 19 26.005607476635515 L 19 130.02803738317758 L 1 130.02803738317758 z"/>
            <path style="fill: #C0C0C0; stroke:#C0C0C0; stroke-linejoin: round;" p:name="arrowUp" id="a459c1ac5f1e42129adbadb270d2db19" d="M 10 5 L 15 10 L 5 10 z"/>
            <path style="fill: #C0C0C0; stroke:#C0C0C0; stroke-linejoin: round;" p:name="arrowDown" id="75b2ee3c8f304d808f7343f7c4c3db85" d="M 10 551.52 L 15 546.52 L 5 546.52 z"/>
        </g></g></g></svg>