<svg xmlns="http://www.w3.org/2000/svg" xmlns:p="http://www.evolus.vn/Namespace/Pencil" xmlns:pencil="http://www.evolus.vn/Namespace/Pencil" xmlns:html="http://www.w3.org/1999/xhtml" xmlns:xhtml="http://www.w3.org/1999/xhtml" xmlns:office="urn:oasis:names:tc:opendocument:xmlns:office:1.0" xmlns:style="urn:oasis:names:tc:opendocument:xmlns:style:1.0" xmlns:text="urn:oasis:names:tc:opendocument:xmlns:text:1.0" xmlns:table="urn:oasis:names:tc:opendocument:xmlns:table:1.0" xmlns:draw="urn:oasis:names:tc:opendocument:xmlns:drawing:1.0" xmlns:fo="urn:oasis:names:tc:opendocument:xmlns:xsl-fo-compatible:1.0" xmlns:xlink="http://www.w3.org/1999/xlink" xmlns:dc="http://purl.org/dc/elements/1.1/" xmlns:meta="urn:oasis:names:tc:opendocument:xmlns:meta:1.0" xmlns:number="urn:oasis:names:tc:opendocument:xmlns:datastyle:1.0" xmlns:svg="urn:oasis:names:tc:opendocument:xmlns:svg-compatible:1.0" xmlns:chart="urn:oasis:names:tc:opendocument:xmlns:chart:1.0" xmlns:dr3d="urn:oasis:names:tc:opendocument:xmlns:dr3d:1.0" xmlns:math="http://www.w3.org/1998/Math/MathML" xmlns:form="urn:oasis:names:tc:opendocument:xmlns:form:1.0" xmlns:script="urn:oasis:names:tc:opendocument:xmlns:script:1.0" xmlns:ooo="http://openoffice.org/2004/office" xmlns:ooow="http://openoffice.org/2004/writer" xmlns:oooc="http://openoffice.org/2004/calc" xmlns:dom="http://www.w3.org/2001/xml-events" xmlns:xforms="http://www.w3.org/2002/xforms" xmlns:xsd="http://www.w3.org/2001/XMLSchema" xmlns:xsi="http://www.w3.org/2001/XMLSchema-instance" xmlns:rpt="http://openoffice.org/2005/report" xmlns:of="urn:oasis:names:tc:opendocument:xmlns:of:1.2" xmlns:rdfa="http://docs.oasis-open.org/opendocument/meta/rdfa#" xmlns:field="urn:openoffice:names:experimental:ooo-ms-interop:xmlns:field:1.0" xmlns:regexp="http://exslt.org/regular-expressions" xmlns:em="http://exslt.org/math" xmlns:sodipodi="http://sodipodi.sourceforge.net/DTD/sodipodi-0.dtd" xmlns:inkscape="http://www.inkscape.org/namespaces/inkscape" width="1590" height="875" id="exportedSVG" version="1.1" pencil:version="1.2.2" sodipodi:docname="buchungen"><g inkscape:label="Untitled Page" inkscape:groupmode="layer" id="layer_untitled_page"><g><rect x="0" y="0" width="1590" height="875" fill="none"/><g p:type="Shape" p:def="Evolus.Sketchy.GUI:box" id="25af2d176a314b29871dd96d885b7c91" transform="matrix(1,0,0,1,170,78.99999999999999)"><p:metadata><p:property name="box">1044,577</p:property><p:property name="textPadding">52.199999999999996,38.46666666666667</p:property><p:property name="fillColor">#FFFFFFFF</p:property><p:property name="strokeColor">#000000FF</p:property><p:property name="strokeStyle">1|</p:property><p:property name="textContent"/><p:property name="textFont">'Comic Sans MS'|normal|normal|12px|none</p:property><p:property name="textColor">#000000FF</p:property><p:property name="textAlign">1,1</p:property></p:metadata>
            <path style="stroke-linejoin: round; fill: rgb(255, 255, 255); fill-opacity: 1; stroke: rgb(0, 0, 0); stroke-opacity: 1; stroke-width: 1;" p:name="line1" id="22bf4c8166cd4fd584a18675578a197e" transform="translate(0.5,0.5)" d="M 0 0 C 348 1 696 1 1044 0 C 1043 192 1043 385 1044 577 C 696 576 348 576 0 577 C 0 385 0 192 0 0 z"/>
            <text p:name="text" id="c5f9e270d1f74beeb2436cd4e2bda5fc" transform="translate(522,289)" style="font-family: &quot;Comic Sans MS&quot;; font-size: 12px; font-weight: normal; font-style: normal; text-decoration: none; fill: rgb(0, 0, 0); fill-opacity: 1;"/>
        </g><g p:type="Shape" p:def="Evolus.Common:PlainTextV2" p:sc="Label" id="9cf2a525a72b4d509fd94e3c113b8ec2" transform="matrix(1,0,0,1,610,115)"><p:metadata><p:property name="disabled">false</p:property><p:property name="width">100,0</p:property><p:property name="fixedWidth">false</p:property><p:property name="label">Contentbereich</p:property><p:property name="textColor">#000000FF</p:property><p:property name="textFont">'Comic Sans MS'|normal|normal|23px|none</p:property><p:property name="textAlign">0,0</p:property></p:metadata>
            <rect x="0" y="0" style="fill: none; stroke: none; visibility: hidden; display: none;" p:name="bgRect" id="beaf3f15b88b4d3ca32c0fcf59e5c9ca" width="165.75" height="32"/>
            <text xml:space="preserve" p:name="text" id="439cf734cf6249d2b56e9115ffd5f9b4" style="fill: rgb(0, 0, 0); fill-opacity: 1; font-family: &quot;Comic Sans MS&quot;; font-size: 23px; font-weight: normal; font-style: normal; text-decoration: none;"><tspan x="0" y="0">Contentbereich</tspan></text>
        </g><g p:type="Shape" p:def="Evolus.Sketchy.GUI:box" id="45c624e73c1640bea4786499cf350062" transform="matrix(1,0,0,1,789,191)"><p:metadata><p:property name="box">200,45</p:property><p:property name="textPadding">10,3</p:property><p:property name="fillColor">#FFFFFFFF</p:property><p:property name="strokeColor">#000000FF</p:property><p:property name="strokeStyle">1|</p:property><p:property name="textContent">Status</p:property><p:property name="textFont">'Comic Sans MS'|normal|normal|12px|none</p:property><p:property name="textColor">#000000FF</p:property><p:property name="textAlign">1,1</p:property></p:metadata>
            <path style="stroke-linejoin: round; fill: rgb(255, 255, 255); fill-opacity: 1; stroke: rgb(0, 0, 0); stroke-opacity: 1; stroke-width: 1;" p:name="line1" id="57c5bd0fd97c448381f032d6e91aabe9" transform="translate(0.5,0.5)" d="M 0 0 C 67 2 133 2 200 0 C 200 15 200 30 200 45 C 133 46 67 46 0 45 C 0 30 0 15 0 0 z"/>
            <text p:name="text" id="5a6e06fb81be420e80051611b29cb638" transform="translate(10,28)" style="font-family: &quot;Comic Sans MS&quot;; font-size: 12px; font-weight: normal; font-style: normal; text-decoration: none; fill: rgb(0, 0, 0); fill-opacity: 1;"><tspan x="71.078125" y="0">Status</tspan></text>
        </g><g p:type="Shape" p:def="Evolus.Sketchy.GUI:box" id="f5f551e165b94b3195e80e64558a4bf0" transform="matrix(1,0,0,1,389,191)"><p:metadata><p:property name="box">200,45</p:property><p:property name="textPadding">10,3</p:property><p:property name="fillColor">#FFFFFFFF</p:property><p:property name="strokeColor">#000000FF</p:property><p:property name="strokeStyle">1|</p:property><p:property name="textContent">Messe</p:property><p:property name="textFont">'Comic Sans MS'|normal|normal|12px|none</p:property><p:property name="textColor">#000000FF</p:property><p:property name="textAlign">1,1</p:property></p:metadata>
            <path style="stroke-linejoin: round; fill: rgb(255, 255, 255); fill-opacity: 1; stroke: rgb(0, 0, 0); stroke-opacity: 1; stroke-width: 1;" p:name="line1" id="cc431f49a71741e095de33ad39c5d31a" transform="translate(0.5,0.5)" d="M 0 0 C 67 -1 133 -1 200 0 C 200 15 200 30 200 45 C 133 45 67 45 0 45 C 0 30 0 15 0 0 z"/>
            <text p:name="text" id="3f29e017ac0948819e3677e5961265f2" transform="translate(10,28)" style="font-family: &quot;Comic Sans MS&quot;; font-size: 12px; font-weight: normal; font-style: normal; text-decoration: none; fill: rgb(0, 0, 0); fill-opacity: 1;"><tspan x="72.2890625" y="0">Messe</tspan></text>
        </g><g p:type="Shape" p:def="Evolus.Sketchy.GUI:box" id="24ff657b8664430e8b7fdd9c65689b0a" transform="matrix(1,0,0,1,589,191)"><p:metadata><p:property name="box">200,45</p:property><p:property name="textPadding">10,3</p:property><p:property name="fillColor">#FFFFFFFF</p:property><p:property name="strokeColor">#000000FF</p:property><p:property name="strokeStyle">1|</p:property><p:property name="textContent">Halle / Stand</p:property><p:property name="textFont">'Comic Sans MS'|normal|normal|12px|none</p:property><p:property name="textColor">#000000FF</p:property><p:property name="textAlign">1,1</p:property></p:metadata>
            <path style="stroke-linejoin: round; fill: rgb(255, 255, 255); fill-opacity: 1; stroke: rgb(0, 0, 0); stroke-opacity: 1; stroke-width: 1;" p:name="line1" id="4830fff8fae24cc893f50d4f2792e6fa" transform="translate(0.5,0.5)" d="M 0 0 C 67 1 133 1 200 0 C 200 15 200 30 200 45 C 133 44 67 44 0 45 C 0 30 0 15 0 0 z"/>
            <text p:name="text" id="c199934a99b9437db94c3a8d7ef5690b" transform="translate(10,28)" style="font-family: &quot;Comic Sans MS&quot;; font-size: 12px; font-weight: normal; font-style: normal; text-decoration: none; fill: rgb(0, 0, 0); fill-opacity: 1;"><tspan x="52.375" y="0">Halle / Stand</tspan></text>
        </g><g p:type="Shape" p:def="Evolus.Sketchy.GUI:box" id="363358c9ffdc4022a59058d81a719c9a" transform="matrix(1,0,0,1,389,234)"><p:metadata><p:property name="box">200,45</p:property><p:property name="textPadding">10,3</p:property><p:property name="fillColor">#FFFFFFFF</p:property><p:property name="strokeColor">#000000FF</p:property><p:property name="strokeStyle">1|</p:property><p:property name="textContent">Messe 1</p:property><p:property name="textFont">'Comic Sans MS'|normal|normal|12px|none</p:property><p:property name="textColor">#000000FF</p:property><p:property name="textAlign">1,1</p:property></p:metadata>
            <path style="stroke-linejoin: round; fill: rgb(255, 255, 255); fill-opacity: 1; stroke: rgb(0, 0, 0); stroke-opacity: 1; stroke-width: 1;" p:name="line1" id="f91ecd46bc4942af838fdae29bd0aada" transform="translate(0.5,0.5)" d="M 0 0 C 67 -1 133 -1 200 0 C 200 15 200 30 200 45 C 133 43 67 43 0 45 C 0 30 0 15 0 0 z"/>
            <text p:name="text" id="cacefa7c678e4c799fddd28e7e486ff0" transform="translate(10,28)" style="font-family: &quot;Comic Sans MS&quot;; font-size: 12px; font-weight: normal; font-style: normal; text-decoration: none; fill: rgb(0, 0, 0); fill-opacity: 1;"><tspan x="67.796875" y="0">Messe 1</tspan></text>
        </g><g p:type="Shape" p:def="Evolus.Sketchy.GUI:box" id="75c407d425e2410bb8fedf2022d2e524" transform="matrix(1,0,0,1,589,234)"><p:metadata><p:property name="box">200,45</p:property><p:property name="textPadding">10,3</p:property><p:property name="fillColor">#FFFFFFFF</p:property><p:property name="strokeColor">#000000FF</p:property><p:property name="strokeStyle">1|</p:property><p:property name="textContent">Halle 9 / Stand 12</p:property><p:property name="textFont">'Comic Sans MS'|normal|normal|12px|none</p:property><p:property name="textColor">#000000FF</p:property><p:property name="textAlign">1,1</p:property></p:metadata>
            <path style="stroke-linejoin: round; fill: rgb(255, 255, 255); fill-opacity: 1; stroke: rgb(0, 0, 0); stroke-opacity: 1; stroke-width: 1;" p:name="line1" id="7ffe28b187d3431d9f9e8a9793a463f0" transform="translate(0.5,0.5)" d="M 0 0 C 67 1 133 1 200 0 C 200 15 200 30 200 45 C 133 47 67 47 0 45 C 0 30 0 15 0 0 z"/>
            <text p:name="text" id="c365523339e44bce946a9f9214935986" transform="translate(10,28)" style="font-family: &quot;Comic Sans MS&quot;; font-size: 12px; font-weight: normal; font-style: normal; text-decoration: none; fill: rgb(0, 0, 0); fill-opacity: 1;"><tspan x="38.7578125" y="0">Halle 9 / Stand 12</tspan></text>
        </g><g p:type="Shape" p:def="Evolus.Sketchy.GUI:box" id="f085e25741b2478b9c5d1dfc4c858c00" transform="matrix(1,0,0,1,389,322)"><p:metadata><p:property name="box">200,45</p:property><p:property name="textPadding">10,3</p:property><p:property name="fillColor">#FFFFFFFF</p:property><p:property name="strokeColor">#000000FF</p:property><p:property name="strokeStyle">1|</p:property><p:property name="textContent">Messe 2</p:property><p:property name="textFont">'Comic Sans MS'|normal|normal|12px|none</p:property><p:property name="textColor">#000000FF</p:property><p:property name="textAlign">1,1</p:property></p:metadata>
            <path style="stroke-linejoin: round; fill: rgb(255, 255, 255); fill-opacity: 1; stroke: rgb(0, 0, 0); stroke-opacity: 1; stroke-width: 1;" p:name="line1" id="49bafb40c31f474496dbef8d16dbc3b3" transform="translate(0.5,0.5)" d="M 0 0 C 67 1 133 1 200 0 C 200 15 200 30 200 45 C 133 45 67 45 0 45 C 1 30 1 15 0 0 z"/>
            <text p:name="text" id="1f45e36c2f1e45aca330da634cb43482" transform="translate(10,28)" style="font-family: &quot;Comic Sans MS&quot;; font-size: 12px; font-weight: normal; font-style: normal; text-decoration: none; fill: rgb(0, 0, 0); fill-opacity: 1;"><tspan x="66.8359375" y="0">Messe 2</tspan></text>
        </g><g p:type="Shape" p:def="Evolus.Sketchy.GUI:box" id="1d086c857f7846d0a3f64e965c6a13dc" transform="matrix(1,0,0,1,589,322)"><p:metadata><p:property name="box">200,45</p:property><p:property name="textPadding">10,3</p:property><p:property name="fillColor">#FFFFFFFF</p:property><p:property name="strokeColor">#000000FF</p:property><p:property name="strokeStyle">1|</p:property><p:property name="textContent">Halle 1 / Stand 1</p:property><p:property name="textFont">'Comic Sans MS'|normal|normal|12px|none</p:property><p:property name="textColor">#000000FF</p:property><p:property name="textAlign">1,1</p:property></p:metadata>
            <path style="stroke-linejoin: round; fill: rgb(255, 255, 255); fill-opacity: 1; stroke: rgb(0, 0, 0); stroke-opacity: 1; stroke-width: 1;" p:name="line1" id="905f213a622740cfaccba1fb2f15403d" transform="translate(0.5,0.5)" d="M 0 0 C 67 1 133 1 200 0 C 200 15 200 30 200 45 C 133 46 67 46 0 45 C 0 30 0 15 0 0 z"/>
            <text p:name="text" id="edccd10cbb0c4a9780f8024e50d4af2c" transform="translate(10,28)" style="font-family: &quot;Comic Sans MS&quot;; font-size: 12px; font-weight: normal; font-style: normal; text-decoration: none; fill: rgb(0, 0, 0); fill-opacity: 1;"><tspan x="43.3828125" y="0">Halle 1 / Stand 1</tspan></text>
        </g><g p:type="Shape" p:def="Evolus.Sketchy.GUI:box" id="91e1666ca36949939d50fe6366f79062" transform="matrix(1,0,0,1,589,279)"><p:metadata><p:property name="box">200,45</p:property><p:property name="textPadding">10,3</p:property><p:property name="fillColor">#FFFFFFFF</p:property><p:property name="strokeColor">#000000FF</p:property><p:property name="strokeStyle">1|</p:property><p:property name="textContent">Halle 9 / Stand 12</p:property><p:property name="textFont">'Comic Sans MS'|normal|normal|12px|none</p:property><p:property name="textColor">#000000FF</p:property><p:property name="textAlign">1,1</p:property></p:metadata>
            <path style="stroke-linejoin: round; fill: rgb(255, 255, 255); fill-opacity: 1; stroke: rgb(0, 0, 0); stroke-opacity: 1; stroke-width: 1;" p:name="line1" id="db65321bf8e041f8bab1ac268a61fc8a" transform="translate(0.5,0.5)" d="M 0 0 C 67 -1 133 -1 200 0 C 200 15 200 30 200 45 C 133 44 67 44 0 45 C 0 30 0 15 0 0 z"/>
            <text p:name="text" id="9a6221ad93904ec6b5d2b5cc3d493ccc" transform="translate(10,28)" style="font-family: &quot;Comic Sans MS&quot;; font-size: 12px; font-weight: normal; font-style: normal; text-decoration: none; fill: rgb(0, 0, 0); fill-opacity: 1;"><tspan x="38.7578125" y="0">Halle 9 / Stand 12</tspan></text>
        </g><g p:type="Shape" p:def="Evolus.Sketchy.GUI:box" id="1693443e8e9f486981c360265d11b8da" transform="matrix(1,0,0,1,389,279)"><p:metadata><p:property name="box">200,45</p:property><p:property name="textPadding">10,3</p:property><p:property name="fillColor">#FFFFFFFF</p:property><p:property name="strokeColor">#000000FF</p:property><p:property name="strokeStyle">1|</p:property><p:property name="textContent">Messe 1</p:property><p:property name="textFont">'Comic Sans MS'|normal|normal|12px|none</p:property><p:property name="textColor">#000000FF</p:property><p:property name="textAlign">1,1</p:property></p:metadata>
            <path style="stroke-linejoin: round; fill: rgb(255, 255, 255); fill-opacity: 1; stroke: rgb(0, 0, 0); stroke-opacity: 1; stroke-width: 1;" p:name="line1" id="6aa541cee43743c28e17af39ef766f5d" transform="translate(0.5,0.5)" d="M 0 0 C 67 1 133 1 200 0 C 200 15 200 30 200 45 C 133 43 67 43 0 45 C 0 30 0 15 0 0 z"/>
            <text p:name="text" id="c476c18fbae1470ab7b6138aa8a926dd" transform="translate(10,28)" style="font-family: &quot;Comic Sans MS&quot;; font-size: 12px; font-weight: normal; font-style: normal; text-decoration: none; fill: rgb(0, 0, 0); fill-opacity: 1;"><tspan x="67.796875" y="0">Messe 1</tspan></text>
        </g><g p:type="Shape" p:def="Evolus.Sketchy.GUI:box" id="347e397f7e8d4866b6a6db77e0b95836" transform="matrix(1,0,0,1,389,455)"><p:metadata><p:property name="box">200,45</p:property><p:property name="textPadding">10,3</p:property><p:property name="fillColor">#FFFFFFFF</p:property><p:property name="strokeColor">#000000FF</p:property><p:property name="strokeStyle">1|</p:property><p:property name="textContent">Messe 2</p:property><p:property name="textFont">'Comic Sans MS'|normal|normal|12px|none</p:property><p:property name="textColor">#000000FF</p:property><p:property name="textAlign">1,1</p:property></p:metadata>
            <path style="stroke-linejoin: round; fill: rgb(255, 255, 255); fill-opacity: 1; stroke: rgb(0, 0, 0); stroke-opacity: 1; stroke-width: 1;" p:name="line1" id="f0a587d111bd4b8b93bac5d30192e222" transform="translate(0.5,0.5)" d="M 0 0 C 67 0 133 0 200 0 C 200 15 200 30 200 45 C 133 45 67 45 0 45 C 0 30 0 15 0 0 z"/>
            <text p:name="text" id="6385eb8b226f45a49cdd60e9b6417890" transform="translate(10,28)" style="font-family: &quot;Comic Sans MS&quot;; font-size: 12px; font-weight: normal; font-style: normal; text-decoration: none; fill: rgb(0, 0, 0); fill-opacity: 1;"><tspan x="66.8359375" y="0">Messe 2</tspan></text>
        </g><g p:type="Shape" p:def="Evolus.Sketchy.GUI:box" id="a7a60beeaa604040a9e5909e0fe8f6d4" transform="matrix(1,0,0,1,389,412)"><p:metadata><p:property name="box">200,45</p:property><p:property name="textPadding">10,3</p:property><p:property name="fillColor">#FFFFFFFF</p:property><p:property name="strokeColor">#000000FF</p:property><p:property name="strokeStyle">1|</p:property><p:property name="textContent">Messe 4</p:property><p:property name="textFont">'Comic Sans MS'|normal|normal|12px|none</p:property><p:property name="textColor">#000000FF</p:property><p:property name="textAlign">1,1</p:property></p:metadata>
            <path style="stroke-linejoin: round; fill: rgb(255, 255, 255); fill-opacity: 1; stroke: rgb(0, 0, 0); stroke-opacity: 1; stroke-width: 1;" p:name="line1" id="8ce829141c14423ca6921e970fcd8e36" transform="translate(0.5,0.5)" d="M 0 0 C 67 -2 133 -2 200 0 C 200 15 200 30 200 45 C 133 46 67 46 0 45 C 0 30 0 15 0 0 z"/>
            <text p:name="text" id="14f2582c523e42a2a313d6acbbaea14b" transform="translate(10,28)" style="font-family: &quot;Comic Sans MS&quot;; font-size: 12px; font-weight: normal; font-style: normal; text-decoration: none; fill: rgb(0, 0, 0); fill-opacity: 1;"><tspan x="66.8359375" y="0">Messe 4</tspan></text>
        </g><g p:type="Shape" p:def="Evolus.Sketchy.GUI:box" id="d951ef6a81ce4b5dbf61b05722fd360a" transform="matrix(1,0,0,1,389,367)"><p:metadata><p:property name="box">200,45</p:property><p:property name="textPadding">10,3</p:property><p:property name="fillColor">#FFFFFFFF</p:property><p:property name="strokeColor">#000000FF</p:property><p:property name="strokeStyle">1|</p:property><p:property name="textContent">Messe 3</p:property><p:property name="textFont">'Comic Sans MS'|normal|normal|12px|none</p:property><p:property name="textColor">#000000FF</p:property><p:property name="textAlign">1,1</p:property></p:metadata>
            <path style="stroke-linejoin: round; fill: rgb(255, 255, 255); fill-opacity: 1; stroke: rgb(0, 0, 0); stroke-opacity: 1; stroke-width: 1;" p:name="line1" id="67093dc8faba4b179a332be31ad1d8f9" transform="translate(0.5,0.5)" d="M 0 0 C 67 -1 133 -1 200 0 C 200 15 200 30 200 45 C 133 46 67 46 0 45 C 0 30 0 15 0 0 z"/>
            <text p:name="text" id="cdb27e138b974ef29ccb9cbb72cf6ea0" transform="translate(10,28)" style="font-family: &quot;Comic Sans MS&quot;; font-size: 12px; font-weight: normal; font-style: normal; text-decoration: none; fill: rgb(0, 0, 0); fill-opacity: 1;"><tspan x="66.8359375" y="0">Messe 3</tspan></text>
        </g><g p:type="Shape" p:def="Evolus.Sketchy.GUI:box" id="ed36a5f7c053430491db95584aa7fc3a" transform="matrix(1,0,0,1,589,367)"><p:metadata><p:property name="box">200,45</p:property><p:property name="textPadding">10,3</p:property><p:property name="fillColor">#FFFFFFFF</p:property><p:property name="strokeColor">#000000FF</p:property><p:property name="strokeStyle">1|</p:property><p:property name="textContent">Halle 2 / Stand 4</p:property><p:property name="textFont">'Comic Sans MS'|normal|normal|12px|none</p:property><p:property name="textColor">#000000FF</p:property><p:property name="textAlign">1,1</p:property></p:metadata>
            <path style="stroke-linejoin: round; fill: rgb(255, 255, 255); fill-opacity: 1; stroke: rgb(0, 0, 0); stroke-opacity: 1; stroke-width: 1;" p:name="line1" id="cf5fdc25108c41d1ba905a6d51002800" transform="translate(0.5,0.5)" d="M 0 0 C 67 0 133 0 200 0 C 200 15 200 30 200 45 C 133 43 67 43 0 45 C 0 30 0 15 0 0 z"/>
            <text p:name="text" id="af6fdf5c83d041dcbda349b3b5795248" transform="translate(10,28)" style="font-family: &quot;Comic Sans MS&quot;; font-size: 12px; font-weight: normal; font-style: normal; text-decoration: none; fill: rgb(0, 0, 0); fill-opacity: 1;"><tspan x="41.4609375" y="0">Halle 2 / Stand 4</tspan></text>
        </g><g p:type="Shape" p:def="Evolus.Sketchy.GUI:box" id="6b7c510c65744b969512bb66336f8ebc" transform="matrix(1,0,0,1,589,412)"><p:metadata><p:property name="box">200,45</p:property><p:property name="textPadding">10,3</p:property><p:property name="fillColor">#FFFFFFFF</p:property><p:property name="strokeColor">#000000FF</p:property><p:property name="strokeStyle">1|</p:property><p:property name="textContent">Halle 1 / Stand 3</p:property><p:property name="textFont">'Comic Sans MS'|normal|normal|12px|none</p:property><p:property name="textColor">#000000FF</p:property><p:property name="textAlign">1,1</p:property></p:metadata>
            <path style="stroke-linejoin: round; fill: rgb(255, 255, 255); fill-opacity: 1; stroke: rgb(0, 0, 0); stroke-opacity: 1; stroke-width: 1;" p:name="line1" id="7fc967cee0544d8887e29421511926e2" transform="translate(0.5,0.5)" d="M 0 0 C 67 1 133 1 200 0 C 200 15 200 30 200 45 C 133 46 67 46 0 45 C 0 30 0 15 0 0 z"/>
            <text p:name="text" id="8a00e5cb4ca64ec68adf071faf8c32b2" transform="translate(10,28)" style="font-family: &quot;Comic Sans MS&quot;; font-size: 12px; font-weight: normal; font-style: normal; text-decoration: none; fill: rgb(0, 0, 0); fill-opacity: 1;"><tspan x="42.421875" y="0">Halle 1 / Stand 3</tspan></text>
        </g><g p:type="Shape" p:def="Evolus.Sketchy.GUI:box" id="1c96e70cfb404029b8b1255230f5aaa8" transform="matrix(1,0,0,1,589,455)"><p:metadata><p:property name="box">200,45</p:property><p:property name="textPadding">10,3</p:property><p:property name="fillColor">#FFFFFFFF</p:property><p:property name="strokeColor">#000000FF</p:property><p:property name="strokeStyle">1|</p:property><p:property name="textContent">Halle 3 / Stand 4</p:property><p:property name="textFont">'Comic Sans MS'|normal|normal|12px|none</p:property><p:property name="textColor">#000000FF</p:property><p:property name="textAlign">1,1</p:property></p:metadata>
            <path style="stroke-linejoin: round; fill: rgb(255, 255, 255); fill-opacity: 1; stroke: rgb(0, 0, 0); stroke-opacity: 1; stroke-width: 1;" p:name="line1" id="f57bb6cb179b4ac8b626d6ff45924483" transform="translate(0.5,0.5)" d="M 0 0 C 67 -1 133 -1 200 0 C 200 15 200 30 200 45 C 133 46 67 46 0 45 C 0 30 0 15 0 0 z"/>
            <text p:name="text" id="76e75f94f06f4aae8ed16389464055be" transform="translate(10,28)" style="font-family: &quot;Comic Sans MS&quot;; font-size: 12px; font-weight: normal; font-style: normal; text-decoration: none; fill: rgb(0, 0, 0); fill-opacity: 1;"><tspan x="41.4609375" y="0">Halle 3 / Stand 4</tspan></text>
        </g><g p:type="Shape" p:def="Evolus.Sketchy.GUI:box" id="71c1b736fb44447fad482fb67e313b45" transform="matrix(1,0,0,1,789,234)"><p:metadata><p:property name="box">200,45</p:property><p:property name="textPadding">10,2.9999999999999996</p:property><p:property name="fillColor">#FFFFFFFF</p:property><p:property name="strokeColor">#000000FF</p:property><p:property name="strokeStyle">1|</p:property><p:property name="textContent">Erfolgreich</p:property><p:property name="textFont">'Comic Sans MS'|normal|normal|12px|none</p:property><p:property name="textColor">#000000FF</p:property><p:property name="textAlign">1,1</p:property></p:metadata>
            <path style="stroke-linejoin: round; fill: rgb(255, 255, 255); fill-opacity: 1; stroke: rgb(0, 0, 0); stroke-opacity: 1; stroke-width: 1;" p:name="line1" id="7f2ac307b52b4b34a669cf8e3c5e5432" transform="translate(0.5,0.5)" d="M 0 0 C 67 1 133 1 200 0 C 200 15 200 30 200 45 C 133 46 67 46 0 45 C 0 30 0 15 0 0 z"/>
            <text p:name="text" id="3f4e488bc86a4b18a92453972ee842f4" transform="translate(10,27)" style="font-family: &quot;Comic Sans MS&quot;; font-size: 12px; font-weight: normal; font-style: normal; text-decoration: none; fill: rgb(0, 0, 0); fill-opacity: 1;"><tspan x="57.9375" y="0">Erfolgreich</tspan></text>
        </g><g p:type="Shape" p:def="Evolus.Sketchy.GUI:box" id="d0a05e63ca0b433494b3b6b353f0529c" transform="matrix(1,0,0,1,789,278)"><p:metadata><p:property name="box">200,45</p:property><p:property name="textPadding">10,2.9999999999999996</p:property><p:property name="fillColor">#FFFFFFFF</p:property><p:property name="strokeColor">#000000FF</p:property><p:property name="strokeStyle">1|</p:property><p:property name="textContent">Erfolgreich</p:property><p:property name="textFont">'Comic Sans MS'|normal|normal|12px|none</p:property><p:property name="textColor">#000000FF</p:property><p:property name="textAlign">1,1</p:property></p:metadata>
            <path style="stroke-linejoin: round; fill: rgb(255, 255, 255); fill-opacity: 1; stroke: rgb(0, 0, 0); stroke-opacity: 1; stroke-width: 1;" p:name="line1" id="5f9f63aac710451b923786be07adde3c" transform="translate(0.5,0.5)" d="M 0 0 C 67 -1 133 -1 200 0 C 200 15 200 30 200 45 C 133 44 67 44 0 45 C 0 30 0 15 0 0 z"/>
            <text p:name="text" id="1162eefbfc484bd6acee9dc7457e9164" transform="translate(10,27)" style="font-family: &quot;Comic Sans MS&quot;; font-size: 12px; font-weight: normal; font-style: normal; text-decoration: none; fill: rgb(0, 0, 0); fill-opacity: 1;"><tspan x="57.9375" y="0">Erfolgreich</tspan></text>
        </g><g p:type="Shape" p:def="Evolus.Sketchy.GUI:box" id="165c36fdb67a4b82a716aa63bfad36c5" transform="matrix(1,0,0,1,789,322)"><p:metadata><p:property name="box">200,45</p:property><p:property name="textPadding">10,2.9999999999999996</p:property><p:property name="fillColor">#FFFFFFFF</p:property><p:property name="strokeColor">#000000FF</p:property><p:property name="strokeStyle">1|</p:property><p:property name="textContent">Abgelehnt</p:property><p:property name="textFont">'Comic Sans MS'|normal|normal|12px|none</p:property><p:property name="textColor">#000000FF</p:property><p:property name="textAlign">1,1</p:property></p:metadata>
            <path style="stroke-linejoin: round; fill: rgb(255, 255, 255); fill-opacity: 1; stroke: rgb(0, 0, 0); stroke-opacity: 1; stroke-width: 1;" p:name="line1" id="08ab0bf850354a27a110a2813e23d390" transform="translate(0.5,0.5)" d="M 0 0 C 67 1 133 1 200 0 C 200 15 200 30 200 45 C 133 47 67 47 0 45 C 0 30 0 15 0 0 z"/>
            <text p:name="text" id="0263f70f70394b97aa00991e9f2cead4" transform="translate(10,27)" style="font-family: &quot;Comic Sans MS&quot;; font-size: 12px; font-weight: normal; font-style: normal; text-decoration: none; fill: rgb(0, 0, 0); fill-opacity: 1;"><tspan x="61.21875" y="0">Abgelehnt</tspan></text>
        </g><g p:type="Shape" p:def="Evolus.Sketchy.GUI:box" id="2552d890300443edb5f6035bf9adba44" transform="matrix(1,0,0,1,789,367)"><p:metadata><p:property name="box">200,45</p:property><p:property name="textPadding">10,2.9999999999999996</p:property><p:property name="fillColor">#FFFFFFFF</p:property><p:property name="strokeColor">#000000FF</p:property><p:property name="strokeStyle">1|</p:property><p:property name="textContent">Erfolgreich</p:property><p:property name="textFont">'Comic Sans MS'|normal|normal|12px|none</p:property><p:property name="textColor">#000000FF</p:property><p:property name="textAlign">1,1</p:property></p:metadata>
            <path style="stroke-linejoin: round; fill: rgb(255, 255, 255); fill-opacity: 1; stroke: rgb(0, 0, 0); stroke-opacity: 1; stroke-width: 1;" p:name="line1" id="ecce309644c440d8a612eb202720f844" transform="translate(0.5,0.5)" d="M 0 0 C 67 2 133 2 200 0 C 200 15 200 30 200 45 C 133 45 67 45 0 45 C 0 30 0 15 0 0 z"/>
            <text p:name="text" id="2c297d242eb745fdb23cf31296f217ad" transform="translate(10,27)" style="font-family: &quot;Comic Sans MS&quot;; font-size: 12px; font-weight: normal; font-style: normal; text-decoration: none; fill: rgb(0, 0, 0); fill-opacity: 1;"><tspan x="57.9375" y="0">Erfolgreich</tspan></text>
        </g><g p:type="Shape" p:def="Evolus.Sketchy.GUI:box" id="f421ad69122345f9a916bbc76abbdbc2" transform="matrix(1,0,0,1,789,412)"><p:metadata><p:property name="box">200,45</p:property><p:property name="textPadding">10,2.9999999999999996</p:property><p:property name="fillColor">#FFFFFFFF</p:property><p:property name="strokeColor">#000000FF</p:property><p:property name="strokeStyle">1|</p:property><p:property name="textContent">Erfolgreich</p:property><p:property name="textFont">'Comic Sans MS'|normal|normal|12px|none</p:property><p:property name="textColor">#000000FF</p:property><p:property name="textAlign">1,1</p:property></p:metadata>
            <path style="stroke-linejoin: round; fill: rgb(255, 255, 255); fill-opacity: 1; stroke: rgb(0, 0, 0); stroke-opacity: 1; stroke-width: 1;" p:name="line1" id="4cdf7be5f14143028921e1f9a7183fbf" transform="translate(0.5,0.5)" d="M 0 0 C 67 -1 133 -1 200 0 C 200 15 200 30 200 45 C 133 46 67 46 0 45 C 0 30 0 15 0 0 z"/>
            <text p:name="text" id="e05278ad093f492bac6a1ba3a66d0e86" transform="translate(10,27)" style="font-family: &quot;Comic Sans MS&quot;; font-size: 12px; font-weight: normal; font-style: normal; text-decoration: none; fill: rgb(0, 0, 0); fill-opacity: 1;"><tspan x="57.9375" y="0">Erfolgreich</tspan></text>
        </g><g p:type="Shape" p:def="Evolus.Sketchy.GUI:box" id="178405b4a3ca4f34b2370b3e0d1593a8" transform="matrix(1,0,0,1,789,455)"><p:metadata><p:property name="box">200,45</p:property><p:property name="textPadding">10,2.9999999999999996</p:property><p:property name="fillColor">#FFFFFFFF</p:property><p:property name="strokeColor">#000000FF</p:property><p:property name="strokeStyle">1|</p:property><p:property name="textContent">Abgelehnt</p:property><p:property name="textFont">'Comic Sans MS'|normal|normal|12px|none</p:property><p:property name="textColor">#000000FF</p:property><p:property name="textAlign">1,1</p:property></p:metadata>
            <path style="stroke-linejoin: round; fill: rgb(255, 255, 255); fill-opacity: 1; stroke: rgb(0, 0, 0); stroke-opacity: 1; stroke-width: 1;" p:name="line1" id="fc3fad9c24374398b3ee9fc2b582e4d2" transform="translate(0.5,0.5)" d="M 0 0 C 67 1 133 1 200 0 C 200 15 200 30 200 45 C 133 44 67 44 0 45 C 0 30 0 15 0 0 z"/>
            <text p:name="text" id="ba833e0859834c60a0f6a0f9b2b259ea" transform="translate(10,27)" style="font-family: &quot;Comic Sans MS&quot;; font-size: 12px; font-weight: normal; font-style: normal; text-decoration: none; fill: rgb(0, 0, 0); fill-opacity: 1;"><tspan x="61.21875" y="0">Abgelehnt</tspan></text>
        </g></g></g></svg>