<svg xmlns="http://www.w3.org/2000/svg" xmlns:p="http://www.evolus.vn/Namespace/Pencil" xmlns:pencil="http://www.evolus.vn/Namespace/Pencil" xmlns:html="http://www.w3.org/1999/xhtml" xmlns:xhtml="http://www.w3.org/1999/xhtml" xmlns:office="urn:oasis:names:tc:opendocument:xmlns:office:1.0" xmlns:style="urn:oasis:names:tc:opendocument:xmlns:style:1.0" xmlns:text="urn:oasis:names:tc:opendocument:xmlns:text:1.0" xmlns:table="urn:oasis:names:tc:opendocument:xmlns:table:1.0" xmlns:draw="urn:oasis:names:tc:opendocument:xmlns:drawing:1.0" xmlns:fo="urn:oasis:names:tc:opendocument:xmlns:xsl-fo-compatible:1.0" xmlns:xlink="http://www.w3.org/1999/xlink" xmlns:dc="http://purl.org/dc/elements/1.1/" xmlns:meta="urn:oasis:names:tc:opendocument:xmlns:meta:1.0" xmlns:number="urn:oasis:names:tc:opendocument:xmlns:datastyle:1.0" xmlns:svg="urn:oasis:names:tc:opendocument:xmlns:svg-compatible:1.0" xmlns:chart="urn:oasis:names:tc:opendocument:xmlns:chart:1.0" xmlns:dr3d="urn:oasis:names:tc:opendocument:xmlns:dr3d:1.0" xmlns:math="http://www.w3.org/1998/Math/MathML" xmlns:form="urn:oasis:names:tc:opendocument:xmlns:form:1.0" xmlns:script="urn:oasis:names:tc:opendocument:xmlns:script:1.0" xmlns:ooo="http://openoffice.org/2004/office" xmlns:ooow="http://openoffice.org/2004/writer" xmlns:oooc="http://openoffice.org/2004/calc" xmlns:dom="http://www.w3.org/2001/xml-events" xmlns:xforms="http://www.w3.org/2002/xforms" xmlns:xsd="http://www.w3.org/2001/XMLSchema" xmlns:xsi="http://www.w3.org/2001/XMLSchema-instance" xmlns:rpt="http://openoffice.org/2005/report" xmlns:of="urn:oasis:names:tc:opendocument:xmlns:of:1.2" xmlns:rdfa="http://docs.oasis-open.org/opendocument/meta/rdfa#" xmlns:field="urn:openoffice:names:experimental:ooo-ms-interop:xmlns:field:1.0" xmlns:regexp="http://exslt.org/regular-expressions" xmlns:em="http://exslt.org/math" xmlns:sodipodi="http://sodipodi.sourceforge.net/DTD/sodipodi-0.dtd" xmlns:inkscape="http://www.inkscape.org/namespaces/inkscape" width="1590" height="875" id="exportedSVG" version="1.1" pencil:version="1.2.2" sodipodi:docname="buchungen"><g inkscape:label="Untitled Page" inkscape:groupmode="layer" id="layer_untitled_page"><g><rect x="0" y="0" width="1590" height="875" fill="none"/><g p:type="Shape" p:def="Evolus.Sketchy.GUI:box" id="25af2d176a314b29871dd96d885b7c91" transform="matrix(1,0,0,1,168,79)"><p:metadata><p:property name="box">1044,577</p:property><p:property name="textPadding">52.199999999999996,38.46666666666667</p:property><p:property name="fillColor">#FFFFFFFF</p:property><p:property name="strokeColor">#000000FF</p:property><p:property name="strokeStyle">1|</p:property><p:property name="textContent"/><p:property name="textFont">'Comic Sans MS'|normal|normal|12px|none</p:property><p:property name="textColor">#000000FF</p:property><p:property name="textAlign">1,1</p:property></p:metadata>
            <path style="stroke-linejoin: round; fill: rgb(255, 255, 255); fill-opacity: 1; stroke: rgb(0, 0, 0); stroke-opacity: 1; stroke-width: 1;" p:name="line1" id="22bf4c8166cd4fd584a18675578a197e" transform="translate(0.5,0.5)" d="M 0 0 C 348 1 696 1 1044 0 C 1043 192 1043 385 1044 577 C 696 576 348 576 0 577 C 0 385 0 192 0 0 z"/>
            <text p:name="text" id="c5f9e270d1f74beeb2436cd4e2bda5fc" transform="translate(522,289)" style="font-family: &quot;Comic Sans MS&quot;; font-size: 12px; font-weight: normal; font-style: normal; text-decoration: none; fill: rgb(0, 0, 0); fill-opacity: 1;"/>
        </g><g p:type="Shape" p:def="Evolus.Common:PlainTextV2" p:sc="Label" id="9cf2a525a72b4d509fd94e3c113b8ec2" transform="matrix(1,0,0,1,632,140)"><p:metadata><p:property name="disabled">false</p:property><p:property name="width">100,0</p:property><p:property name="fixedWidth">false</p:property><p:property name="label">Suche</p:property><p:property name="textColor">#000000FF</p:property><p:property name="textFont">'Comic Sans MS'|normal|normal|23px|none</p:property><p:property name="textAlign">0,0</p:property></p:metadata>
            <rect x="0" y="0" style="fill: none; stroke: none; visibility: hidden; display: none;" p:name="bgRect" id="beaf3f15b88b4d3ca32c0fcf59e5c9ca" width="65.59375" height="32"/>
            <text xml:space="preserve" p:name="text" id="439cf734cf6249d2b56e9115ffd5f9b4" style="fill: rgb(0, 0, 0); fill-opacity: 1; font-family: &quot;Comic Sans MS&quot;; font-size: 23px; font-weight: normal; font-style: normal; text-decoration: none;"><tspan x="0" y="0">Suche</tspan></text>
        </g><g p:type="Shape" p:def="Evolus.Sketchy.GUI:box" id="7ed936cc9d4f4d19b0fec1bcb2b43a7b" transform="matrix(1,0,0,1,292,161)"><p:metadata><p:property name="box">200,37</p:property><p:property name="textPadding">10,2.4666666666666663</p:property><p:property name="fillColor">#FFFFFFFF</p:property><p:property name="strokeColor">#000000FF</p:property><p:property name="strokeStyle">1|</p:property><p:property name="textContent">Aussteller</p:property><p:property name="textFont">'Comic Sans MS'|normal|normal|12px|none</p:property><p:property name="textColor">#000000FF</p:property><p:property name="textAlign">1,1</p:property></p:metadata>
            <path style="stroke-linejoin: round; fill: rgb(255, 255, 255); fill-opacity: 1; stroke: rgb(0, 0, 0); stroke-opacity: 1; stroke-width: 1;" p:name="line1" id="2cfa2a0c7c434438b4bed13b73cd3cad" transform="translate(0.5,0.5)" d="M 0 0 C 67 -2 133 -2 200 0 C 200 12 200 25 200 37 C 133 38 67 38 0 37 C 0 25 0 12 0 0 z"/>
            <text p:name="text" id="cf0f18cfa378492e96f79cdd4060e89b" transform="translate(10,24)" style="font-family: &quot;Comic Sans MS&quot;; font-size: 12px; font-weight: normal; font-style: normal; text-decoration: none; fill: rgb(0, 0, 0); fill-opacity: 1;"><tspan x="61.078125" y="0">Aussteller</tspan></text>
        </g><g p:type="Shape" p:def="Evolus.Sketchy.GUI:box" id="e394f61569274af3b8ace5251ba5b49c" transform="matrix(1,0,0,1,490,161)"><p:metadata><p:property name="box">200,37</p:property><p:property name="textPadding">10,2.4666666666666663</p:property><p:property name="fillColor">#FFFFFFFF</p:property><p:property name="strokeColor">#000000FF</p:property><p:property name="strokeStyle">1|</p:property><p:property name="textContent">Messe</p:property><p:property name="textFont">'Comic Sans MS'|normal|normal|12px|none</p:property><p:property name="textColor">#000000FF</p:property><p:property name="textAlign">1,1</p:property></p:metadata>
            <path style="stroke-linejoin: round; fill: rgb(255, 255, 255); fill-opacity: 1; stroke: rgb(0, 0, 0); stroke-opacity: 1; stroke-width: 1;" p:name="line1" id="43e5740f00a144a3b7b6fde7f2e7c668" transform="translate(0.5,0.5)" d="M 0 0 C 67 -2 133 -2 200 0 C 200 12 200 25 200 37 C 133 38 67 38 0 37 C 0 25 0 12 0 0 z"/>
            <text p:name="text" id="d17b4f7d6646430e878d8a18ca9fec9b" transform="translate(10,24)" style="font-family: &quot;Comic Sans MS&quot;; font-size: 12px; font-weight: normal; font-style: normal; text-decoration: none; fill: rgb(0, 0, 0); fill-opacity: 1;"><tspan x="72.2890625" y="0">Messe</tspan></text>
        </g><g p:type="Shape" p:def="Evolus.Sketchy.GUI:box" id="94be1df1ab394564ac38c0cbffc794ea" transform="matrix(1,0,0,1,690,161)"><p:metadata><p:property name="box">389,37</p:property><p:property name="textPadding">19.45,2.4666666666666663</p:property><p:property name="fillColor">#FFFFFFFF</p:property><p:property name="strokeColor">#000000FF</p:property><p:property name="strokeStyle">1|</p:property><p:property name="textContent">Halle +  Stand</p:property><p:property name="textFont">'Comic Sans MS'|normal|normal|12px|none</p:property><p:property name="textColor">#000000FF</p:property><p:property name="textAlign">1,1</p:property></p:metadata>
            <path style="stroke-linejoin: round; fill: rgb(255, 255, 255); fill-opacity: 1; stroke: rgb(0, 0, 0); stroke-opacity: 1; stroke-width: 1;" p:name="line1" id="fa6c665873be4b5393aa8fbfcde61abe" transform="translate(0.5,0.5)" d="M 0 0 C 130 1 259 1 389 0 C 389 12 389 25 389 37 C 259 35 130 35 0 37 C 0 25 0 12 0 0 z"/>
            <text p:name="text" id="5eb59754a2dc425ba53dde93c41e2d28" transform="translate(19,24)" style="font-family: &quot;Comic Sans MS&quot;; font-size: 12px; font-weight: normal; font-style: normal; text-decoration: none; fill: rgb(0, 0, 0); fill-opacity: 1;"><tspan x="137.6125" y="0">Halle +  Stand</tspan></text>
        </g><g p:type="Shape" p:def="Evolus.Sketchy.GUI:box" id="d63d1786336c4b2facddf6a3bff231ba" transform="matrix(1,0,0,1,292,198)"><p:metadata><p:property name="box">200,37</p:property><p:property name="textPadding">10,2.4666666666666663</p:property><p:property name="fillColor">#FFFFFFFF</p:property><p:property name="strokeColor">#000000FF</p:property><p:property name="strokeStyle">1|</p:property><p:property name="textContent">Aussteller A</p:property><p:property name="textFont">'Comic Sans MS'|normal|normal|12px|none</p:property><p:property name="textColor">#000000FF</p:property><p:property name="textAlign">1,1</p:property></p:metadata>
            <path style="stroke-linejoin: round; fill: rgb(255, 255, 255); fill-opacity: 1; stroke: rgb(0, 0, 0); stroke-opacity: 1; stroke-width: 1;" p:name="line1" id="a27acf4c3b294cdabc133c4a4ae869a5" transform="translate(0.5,0.5)" d="M 0 0 C 67 -2 133 -2 200 0 C 200 12 200 25 200 37 C 133 38 67 38 0 37 C 0 25 0 12 0 0 z"/>
            <text p:name="text" id="4f3f4f0d1f934417a35f47221b1d9122" transform="translate(10,24)" style="font-family: &quot;Comic Sans MS&quot;; font-size: 12px; font-weight: normal; font-style: normal; text-decoration: none; fill: rgb(0, 0, 0); fill-opacity: 1;"><tspan x="54.8984375" y="0">Aussteller A</tspan></text>
        </g><g p:type="Shape" p:def="Evolus.Sketchy.GUI:box" id="c49472e2c5ed47ce9739f3cecb38d3da" transform="matrix(1,0,0,1,490,198)"><p:metadata><p:property name="box">200,37</p:property><p:property name="textPadding">10,2.4666666666666663</p:property><p:property name="fillColor">#FFFFFFFF</p:property><p:property name="strokeColor">#000000FF</p:property><p:property name="strokeStyle">1|</p:property><p:property name="textContent">Messe 1</p:property><p:property name="textFont">'Comic Sans MS'|normal|normal|12px|none</p:property><p:property name="textColor">#000000FF</p:property><p:property name="textAlign">1,1</p:property></p:metadata>
            <path style="stroke-linejoin: round; fill: rgb(255, 255, 255); fill-opacity: 1; stroke: rgb(0, 0, 0); stroke-opacity: 1; stroke-width: 1;" p:name="line1" id="5ec7b0d06b3b44828862e51c12611282" transform="translate(0.5,0.5)" d="M 0 0 C 67 -2 133 -2 200 0 C 200 12 200 25 200 37 C 133 38 67 38 0 37 C 0 25 0 12 0 0 z"/>
            <text p:name="text" id="c58f41065ffc4d70aba279a998d4823a" transform="translate(10,24)" style="font-family: &quot;Comic Sans MS&quot;; font-size: 12px; font-weight: normal; font-style: normal; text-decoration: none; fill: rgb(0, 0, 0); fill-opacity: 1;"><tspan x="67.796875" y="0">Messe 1</tspan></text>
        </g><g p:type="Shape" p:def="Evolus.Sketchy.GUI:box" id="9fbf154ceb0240208dac8b078820081a" transform="matrix(1,0,0,1,690,197)"><p:metadata><p:property name="box">389,37</p:property><p:property name="textPadding">19.45,2.4666666666666663</p:property><p:property name="fillColor">#FFFFFFFF</p:property><p:property name="strokeColor">#000000FF</p:property><p:property name="strokeStyle">1|</p:property><p:property name="textContent">Halle 1, St. 3</p:property><p:property name="textFont">'Comic Sans MS'|normal|normal|12px|none</p:property><p:property name="textColor">#000000FF</p:property><p:property name="textAlign">1,1</p:property></p:metadata>
            <path style="stroke-linejoin: round; fill: rgb(255, 255, 255); fill-opacity: 1; stroke: rgb(0, 0, 0); stroke-opacity: 1; stroke-width: 1;" p:name="line1" id="88002eb4dbf04829855eadc26e036ad2" transform="translate(0.5,0.5)" d="M 0 0 C 130 1 259 1 389 0 C 389 12 389 25 389 37 C 259 35 130 35 0 37 C 0 25 0 12 0 0 z"/>
            <text p:name="text" id="712890872fa34b4eb5829a88280738f1" transform="translate(19,24)" style="font-family: &quot;Comic Sans MS&quot;; font-size: 12px; font-weight: normal; font-style: normal; text-decoration: none; fill: rgb(0, 0, 0); fill-opacity: 1;"><tspan x="138.9171875" y="0">Halle 1, St. 3</tspan></text>
        </g><g p:type="Shape" p:def="Evolus.Sketchy.GUI:box" id="cc40b62326bc42af8dcc32f9c9b91e60" transform="matrix(1,0,0,1,292,233)"><p:metadata><p:property name="box">200,37</p:property><p:property name="textPadding">10,2.4666666666666663</p:property><p:property name="fillColor">#FFFFFFFF</p:property><p:property name="strokeColor">#000000FF</p:property><p:property name="strokeStyle">1|</p:property><p:property name="textContent">Aussteller B</p:property><p:property name="textFont">'Comic Sans MS'|normal|normal|12px|none</p:property><p:property name="textColor">#000000FF</p:property><p:property name="textAlign">1,1</p:property></p:metadata>
            <path style="stroke-linejoin: round; fill: rgb(255, 255, 255); fill-opacity: 1; stroke: rgb(0, 0, 0); stroke-opacity: 1; stroke-width: 1;" p:name="line1" id="7d1e039de6d948adb78c8e1d31269204" transform="translate(0.5,0.5)" d="M 0 0 C 67 -2 133 -2 200 0 C 200 12 200 25 200 37 C 133 38 67 38 0 37 C 0 25 0 12 0 0 z"/>
            <text p:name="text" id="6c2f7266462a456188a1287c0059f417" transform="translate(10,24)" style="font-family: &quot;Comic Sans MS&quot;; font-size: 12px; font-weight: normal; font-style: normal; text-decoration: none; fill: rgb(0, 0, 0); fill-opacity: 1;"><tspan x="55.5078125" y="0">Aussteller B</tspan></text>
        </g><g p:type="Shape" p:def="Evolus.Sketchy.GUI:box" id="4dad1447a83440b7bbe6f8fdaef65de7" transform="matrix(1,0,0,1,490,233)"><p:metadata><p:property name="box">200,37</p:property><p:property name="textPadding">10,2.4666666666666663</p:property><p:property name="fillColor">#FFFFFFFF</p:property><p:property name="strokeColor">#000000FF</p:property><p:property name="strokeStyle">1|</p:property><p:property name="textContent">Messe 3</p:property><p:property name="textFont">'Comic Sans MS'|normal|normal|12px|none</p:property><p:property name="textColor">#000000FF</p:property><p:property name="textAlign">1,1</p:property></p:metadata>
            <path style="stroke-linejoin: round; fill: rgb(255, 255, 255); fill-opacity: 1; stroke: rgb(0, 0, 0); stroke-opacity: 1; stroke-width: 1;" p:name="line1" id="420371e11e094aecb5d77bb79e630d0f" transform="translate(0.5,0.5)" d="M 0 0 C 67 -2 133 -2 200 0 C 200 12 200 25 200 37 C 133 38 67 38 0 37 C 0 25 0 12 0 0 z"/>
            <text p:name="text" id="4783f5e1a5854c5d9e32b786852225e4" transform="translate(10,24)" style="font-family: &quot;Comic Sans MS&quot;; font-size: 12px; font-weight: normal; font-style: normal; text-decoration: none; fill: rgb(0, 0, 0); fill-opacity: 1;"><tspan x="66.8359375" y="0">Messe 3</tspan></text>
        </g><g p:type="Shape" p:def="Evolus.Sketchy.GUI:box" id="ccf669707d414c2f8c908fce64589722" transform="matrix(1,0,0,1,690,234)"><p:metadata><p:property name="box">389,37</p:property><p:property name="textPadding">19.45,2.4666666666666663</p:property><p:property name="fillColor">#FFFFFFFF</p:property><p:property name="strokeColor">#000000FF</p:property><p:property name="strokeStyle">1|</p:property><p:property name="textContent">Halle 3, St. 4</p:property><p:property name="textFont">'Comic Sans MS'|normal|normal|12px|none</p:property><p:property name="textColor">#000000FF</p:property><p:property name="textAlign">1,1</p:property></p:metadata>
            <path style="stroke-linejoin: round; fill: rgb(255, 255, 255); fill-opacity: 1; stroke: rgb(0, 0, 0); stroke-opacity: 1; stroke-width: 1;" p:name="line1" id="0e92d84a02834a24a2a623a0f4f50398" transform="translate(0.5,0.5)" d="M 0 0 C 130 1 259 1 389 0 C 389 12 389 25 389 37 C 259 35 130 35 0 37 C 0 25 0 12 0 0 z"/>
            <text p:name="text" id="7e588164c1bd43db92daca6a9c59715e" transform="translate(19,24)" style="font-family: &quot;Comic Sans MS&quot;; font-size: 12px; font-weight: normal; font-style: normal; text-decoration: none; fill: rgb(0, 0, 0); fill-opacity: 1;"><tspan x="137.95625" y="0">Halle 3, St. 4</tspan></text>
        </g><g p:type="Shape" p:def="Evolus.Sketchy.GUI:box" id="227ed0bfab9246d5830eacd316026980" transform="matrix(1,0,0,1,292,268)"><p:metadata><p:property name="box">200,73</p:property><p:property name="textPadding">10,4.866666666666666</p:property><p:property name="fillColor">#FFFFFFFF</p:property><p:property name="strokeColor">#000000FF</p:property><p:property name="strokeStyle">1|</p:property><p:property name="textContent">Aussteller C</p:property><p:property name="textFont">'Comic Sans MS'|normal|normal|12px|none</p:property><p:property name="textColor">#000000FF</p:property><p:property name="textAlign">1,1</p:property></p:metadata>
            <path style="stroke-linejoin: round; fill: rgb(255, 255, 255); fill-opacity: 1; stroke: rgb(0, 0, 0); stroke-opacity: 1; stroke-width: 1;" p:name="line1" id="3a2e2d79b5b64e62bc1889717c2d1915" transform="translate(0.5,0.5)" d="M 0 0 C 67 0 133 0 200 0 C 201 24 201 49 200 73 C 133 73 67 73 0 73 C 0 49 0 24 0 0 z"/>
            <text p:name="text" id="b14985502cd6467090b3bf83f24edec8" transform="translate(10,42)" style="font-family: &quot;Comic Sans MS&quot;; font-size: 12px; font-weight: normal; font-style: normal; text-decoration: none; fill: rgb(0, 0, 0); fill-opacity: 1;"><tspan x="55.671875" y="0">Aussteller C</tspan></text>
        </g><g p:type="Shape" p:def="Evolus.Sketchy.GUI:box" id="6d7ca43eddc0466892c0b4860e19dd5f" transform="matrix(1,0,0,1,490,268)"><p:metadata><p:property name="box">200,37</p:property><p:property name="textPadding">10,2.4666666666666663</p:property><p:property name="fillColor">#FFFFFFFF</p:property><p:property name="strokeColor">#000000FF</p:property><p:property name="strokeStyle">1|</p:property><p:property name="textContent">Messe 2</p:property><p:property name="textFont">'Comic Sans MS'|normal|normal|12px|none</p:property><p:property name="textColor">#000000FF</p:property><p:property name="textAlign">1,1</p:property></p:metadata>
            <path style="stroke-linejoin: round; fill: rgb(255, 255, 255); fill-opacity: 1; stroke: rgb(0, 0, 0); stroke-opacity: 1; stroke-width: 1;" p:name="line1" id="73b66244e84a4582afd586076cc47e16" transform="translate(0.5,0.5)" d="M 0 0 C 67 -2 133 -2 200 0 C 200 12 200 25 200 37 C 133 38 67 38 0 37 C 0 25 0 12 0 0 z"/>
            <text p:name="text" id="fd4e101fb32e473b9ab9a8cb0936008f" transform="translate(10,24)" style="font-family: &quot;Comic Sans MS&quot;; font-size: 12px; font-weight: normal; font-style: normal; text-decoration: none; fill: rgb(0, 0, 0); fill-opacity: 1;"><tspan x="66.8359375" y="0">Messe 2</tspan></text>
        </g><g p:type="Shape" p:def="Evolus.Sketchy.GUI:box" id="c9140c377c0e4d9d95d96708f959e03a" transform="matrix(1,0,0,1,690,268)"><p:metadata><p:property name="box">389,37</p:property><p:property name="textPadding">19.45,2.4666666666666663</p:property><p:property name="fillColor">#FFFFFFFF</p:property><p:property name="strokeColor">#000000FF</p:property><p:property name="strokeStyle">1|</p:property><p:property name="textContent">Halle 3, St. 3</p:property><p:property name="textFont">'Comic Sans MS'|normal|normal|12px|none</p:property><p:property name="textColor">#000000FF</p:property><p:property name="textAlign">1,1</p:property></p:metadata>
            <path style="stroke-linejoin: round; fill: rgb(255, 255, 255); fill-opacity: 1; stroke: rgb(0, 0, 0); stroke-opacity: 1; stroke-width: 1;" p:name="line1" id="55f6a02f327c4d3c877dbec05fce9c73" transform="translate(0.5,0.5)" d="M 0 0 C 130 1 259 1 389 0 C 389 12 389 25 389 37 C 259 35 130 35 0 37 C 0 25 0 12 0 0 z"/>
            <text p:name="text" id="989b90bf528d4a76b822ce7e3a06ecf3" transform="translate(19,24)" style="font-family: &quot;Comic Sans MS&quot;; font-size: 12px; font-weight: normal; font-style: normal; text-decoration: none; fill: rgb(0, 0, 0); fill-opacity: 1;"><tspan x="137.95625" y="0">Halle 3, St. 3</tspan></text>
        </g><g p:type="Shape" p:def="Evolus.Sketchy.GUI:box" id="5134f40ec6e5418f8396a22eab8ec379" transform="matrix(1,0,0,1,690,304)"><p:metadata><p:property name="box">389,37</p:property><p:property name="textPadding">19.45,2.4666666666666663</p:property><p:property name="fillColor">#FFFFFFFF</p:property><p:property name="strokeColor">#000000FF</p:property><p:property name="strokeStyle">1|</p:property><p:property name="textContent">Halle 2, St 1</p:property><p:property name="textFont">'Comic Sans MS'|normal|normal|12px|none</p:property><p:property name="textColor">#000000FF</p:property><p:property name="textAlign">1,1</p:property></p:metadata>
            <path style="stroke-linejoin: round; fill: rgb(255, 255, 255); fill-opacity: 1; stroke: rgb(0, 0, 0); stroke-opacity: 1; stroke-width: 1;" p:name="line1" id="ae06ef423cac4cc0828ccb4a96c5dbda" transform="translate(0.5,0.5)" d="M 0 0 C 130 1 259 1 389 0 C 389 12 389 25 389 37 C 259 35 130 35 0 37 C 0 25 0 12 0 0 z"/>
            <text p:name="text" id="ba2f795818cb44d1aa3a628274d4baea" transform="translate(19,24)" style="font-family: &quot;Comic Sans MS&quot;; font-size: 12px; font-weight: normal; font-style: normal; text-decoration: none; fill: rgb(0, 0, 0); fill-opacity: 1;"><tspan x="140.409375" y="0">Halle 2, St 1</tspan></text>
        </g><g p:type="Shape" p:def="Evolus.Sketchy.GUI:box" id="6b42620daeab44a2806825f8afb5417f" transform="matrix(1,0,0,1,690,341)"><p:metadata><p:property name="box">389,37</p:property><p:property name="textPadding">19.45,2.4666666666666663</p:property><p:property name="fillColor">#FFFFFFFF</p:property><p:property name="strokeColor">#000000FF</p:property><p:property name="strokeStyle">1|</p:property><p:property name="textContent">Halle 3, St. 12</p:property><p:property name="textFont">'Comic Sans MS'|normal|normal|12px|none</p:property><p:property name="textColor">#000000FF</p:property><p:property name="textAlign">1,1</p:property></p:metadata>
            <path style="stroke-linejoin: round; fill: rgb(255, 255, 255); fill-opacity: 1; stroke: rgb(0, 0, 0); stroke-opacity: 1; stroke-width: 1;" p:name="line1" id="9a4c150e400745e9bc4853d8b1f49dc3" transform="translate(0.5,0.5)" d="M 0 0 C 130 1 259 1 389 0 C 389 12 389 25 389 37 C 259 35 130 35 0 37 C 0 25 0 12 0 0 z"/>
            <text p:name="text" id="5f1b2dedd3e5474eb4ccf2c6655bed30" transform="translate(19,24)" style="font-family: &quot;Comic Sans MS&quot;; font-size: 12px; font-weight: normal; font-style: normal; text-decoration: none; fill: rgb(0, 0, 0); fill-opacity: 1;"><tspan x="135.253125" y="0">Halle 3, St. 12</tspan></text>
        </g><g p:type="Shape" p:def="Evolus.Sketchy.GUI:box" id="2f1ce493e2f8492194cd232f344c349c" transform="matrix(1,0,0,1,490,341)"><p:metadata><p:property name="box">200,37</p:property><p:property name="textPadding">10,2.4666666666666663</p:property><p:property name="fillColor">#FFFFFFFF</p:property><p:property name="strokeColor">#000000FF</p:property><p:property name="strokeStyle">1|</p:property><p:property name="textContent">Messe 2</p:property><p:property name="textFont">'Comic Sans MS'|normal|normal|12px|none</p:property><p:property name="textColor">#000000FF</p:property><p:property name="textAlign">1,1</p:property></p:metadata>
            <path style="stroke-linejoin: round; fill: rgb(255, 255, 255); fill-opacity: 1; stroke: rgb(0, 0, 0); stroke-opacity: 1; stroke-width: 1;" p:name="line1" id="c6673f1d9f51408ba99a377de1fc4241" transform="translate(0.5,0.5)" d="M 0 0 C 67 -2 133 -2 200 0 C 200 12 200 25 200 37 C 133 38 67 38 0 37 C 0 25 0 12 0 0 z"/>
            <text p:name="text" id="e6b50599b7c44aa5b9d82a9fa6b90525" transform="translate(10,24)" style="font-family: &quot;Comic Sans MS&quot;; font-size: 12px; font-weight: normal; font-style: normal; text-decoration: none; fill: rgb(0, 0, 0); fill-opacity: 1;"><tspan x="66.8359375" y="0">Messe 2</tspan></text>
        </g><g p:type="Shape" p:def="Evolus.Sketchy.GUI:box" id="fd6011e6df2b45d7a52dd224383bcb3c" transform="matrix(1,0,0,1,490,305)"><p:metadata><p:property name="box">200,37</p:property><p:property name="textPadding">10,2.4666666666666663</p:property><p:property name="fillColor">#FFFFFFFF</p:property><p:property name="strokeColor">#000000FF</p:property><p:property name="strokeStyle">1|</p:property><p:property name="textContent">Messe 4</p:property><p:property name="textFont">'Comic Sans MS'|normal|normal|12px|none</p:property><p:property name="textColor">#000000FF</p:property><p:property name="textAlign">1,1</p:property></p:metadata>
            <path style="stroke-linejoin: round; fill: rgb(255, 255, 255); fill-opacity: 1; stroke: rgb(0, 0, 0); stroke-opacity: 1; stroke-width: 1;" p:name="line1" id="606d2fd5c7da4a3e8174832302e7e3ef" transform="translate(0.5,0.5)" d="M 0 0 C 67 -2 133 -2 200 0 C 200 12 200 25 200 37 C 133 38 67 38 0 37 C 0 25 0 12 0 0 z"/>
            <text p:name="text" id="b1d781c97f924ca8a58a293f15f44165" transform="translate(10,24)" style="font-family: &quot;Comic Sans MS&quot;; font-size: 12px; font-weight: normal; font-style: normal; text-decoration: none; fill: rgb(0, 0, 0); fill-opacity: 1;"><tspan x="66.8359375" y="0">Messe 4</tspan></text>
        </g><g p:type="Shape" p:def="Evolus.Sketchy.GUI:box" id="6e7642d476f94ebdb6dbe2869be9ac13" transform="matrix(1,0,0,1,292,341)"><p:metadata><p:property name="box">200,37</p:property><p:property name="textPadding">10,2.4666666666666663</p:property><p:property name="fillColor">#FFFFFFFF</p:property><p:property name="strokeColor">#000000FF</p:property><p:property name="strokeStyle">1|</p:property><p:property name="textContent">Aussteller D</p:property><p:property name="textFont">'Comic Sans MS'|normal|normal|12px|none</p:property><p:property name="textColor">#000000FF</p:property><p:property name="textAlign">1,1</p:property></p:metadata>
            <path style="stroke-linejoin: round; fill: rgb(255, 255, 255); fill-opacity: 1; stroke: rgb(0, 0, 0); stroke-opacity: 1; stroke-width: 1;" p:name="line1" id="b81227919eaa46f48c937dbf1b104205" transform="translate(0.5,0.5)" d="M 0 0 C 67 -2 133 -2 200 0 C 200 12 200 25 200 37 C 133 38 67 38 0 37 C 0 25 0 12 0 0 z"/>
            <text p:name="text" id="eb7adb6d0f0c4be5ae5b2b18049e293a" transform="translate(10,24)" style="font-family: &quot;Comic Sans MS&quot;; font-size: 12px; font-weight: normal; font-style: normal; text-decoration: none; fill: rgb(0, 0, 0); fill-opacity: 1;"><tspan x="54.9609375" y="0">Aussteller D</tspan></text>
        </g></g></g></svg>